<svg xmlns="http://www.w3.org/2000/svg" xmlns:xlink="http://www.w3.org/1999/xlink" width="500" zoomAndPan="magnify" viewBox="0 0 375 374.999991" height="500" preserveAspectRatio="xMidYMid meet" version="1.0"><defs><clipPath id="c53e30ebce"><path d="M 63.148438 22.417969 L 328.648438 22.417969 L 328.648438 336 L 63.148438 336 Z M 63.148438 22.417969 " clip-rule="nonzero"/></clipPath></defs><path fill="#d3744f" d="M 129.015625 282.082031 C 137.320312 281.300781 136.101562 272.574219 129.015625 273.769531 C 123.9375 274.625 117.855469 273.660156 114.292969 262.503906 C 112.9375 258.269531 106.714844 260.347656 107.785156 267.203125 C 107.785156 267.203125 109.898438 283.871094 129.015625 282.082031 Z M 129.015625 282.082031 " fill-opacity="1" fill-rule="evenodd"/><path fill="#fde266" d="M 181.503906 322.082031 C 183.835938 312.542969 183.152344 299.425781 164.265625 294.996094 C 156.234375 293.109375 148.777344 293.738281 142.800781 295.113281 C 139.03125 293.484375 135.84375 291.332031 133.316406 288.597656 C 131.5625 286.710938 130.121094 284.542969 129.015625 282.082031 C 109.898438 283.871094 107.785156 267.203125 107.785156 267.203125 C 102.769531 270.898438 93.421875 278.246094 87.570312 285.550781 C 87.570312 285.550781 104.902344 297.585938 113.5 304.730469 C 135.601562 323.089844 181.503906 322.082031 181.503906 322.082031 Z M 181.503906 322.082031 " fill-opacity="1" fill-rule="evenodd"/><path fill="#d3744f" d="M 87.570312 285.550781 C 84.957031 288.816406 83.039062 292.074219 82.519531 294.996094 C 82.519531 294.996094 106.875 315.65625 114.550781 319.613281 C 144.191406 334.914062 177.328125 332.761719 177.328125 332.761719 C 177.328125 332.761719 180.027344 328.148438 181.503906 322.082031 C 181.503906 322.082031 135.601562 323.089844 113.5 304.730469 C 104.902344 297.585938 87.570312 285.550781 87.570312 285.550781 Z M 87.570312 285.550781 " fill-opacity="1" fill-rule="evenodd"/><path fill="#d3744f" d="M 249.027344 288.15625 C 249.050781 288.152344 249.074219 288.144531 249.09375 288.144531 L 246.136719 293.414062 C 243.859375 297.671875 255.25 301.835938 260.140625 294.703125 C 260.140625 294.703125 286.710938 250.054688 291.472656 240.089844 C 298.953125 224.449219 291.472656 219.691406 291.472656 219.691406 C 291.472656 219.691406 290.808594 219.296875 289.648438 218.707031 C 286.871094 227.460938 258.1875 279.210938 249.027344 288.15625 Z M 249.027344 288.15625 " fill-opacity="1" fill-rule="evenodd"/><path fill="#d3744f" d="M 237.785156 254.148438 C 237.855469 253.945312 237.917969 253.761719 237.96875 253.585938 C 239.996094 246.625 231.652344 241.664062 229.464844 247.636719 C 227.953125 251.773438 220.515625 264.304688 217.058594 266.84375 C 214.261719 268.910156 217.328125 277.679688 224.140625 274.519531 C 224.160156 274.515625 224.179688 274.503906 224.195312 274.496094 C 227.789062 272.804688 236.011719 259.101562 237.785156 254.148438 Z M 237.785156 254.148438 " fill-opacity="1" fill-rule="evenodd"/><path fill="#fde266" d="M 224.140625 274.519531 C 224.140625 274.519531 224.617188 292.199219 249.027344 288.15625 C 258.1875 279.210938 286.871094 227.460938 289.648438 218.707031 C 284.003906 215.851562 266.675781 208.460938 256.800781 219.691406 C 245.394531 232.675781 254.761719 244.96875 254.761719 244.96875 C 252.789062 245.507812 250.847656 246.257812 249.027344 247.105469 C 246.445312 248.304688 244.097656 249.695312 242.230469 250.921875 C 239.507812 252.710938 237.785156 254.148438 237.785156 254.148438 C 236.011719 259.101562 227.789062 272.804688 224.195312 274.496094 C 224.179688 274.503906 224.160156 274.515625 224.140625 274.519531 Z M 224.140625 274.519531 " fill-opacity="1" fill-rule="evenodd"/><path fill="#d45e8c" d="M 325.78125 125.265625 C 325.71875 126.21875 325.640625 127.089844 325.550781 127.859375 C 324.671875 135.105469 307.957031 141.246094 307.957031 141.246094 C 307.695312 141.023438 307.40625 140.820312 307.089844 140.660156 C 301.09375 137.566406 296.046875 132.855469 291.609375 126.980469 C 291.382812 126.683594 291.125 126.414062 290.84375 126.1875 C 290.84375 126.1875 292.5625 118.347656 296.476562 114.566406 C 296.476562 114.566406 292.089844 96.496094 300.652344 89.886719 C 309.734375 82.890625 310.992188 99.554688 310.992188 99.554688 C 310.992188 99.554688 302.105469 104.886719 306.042969 114.707031 C 309.964844 124.488281 314.050781 132.105469 325.78125 125.265625 Z M 325.78125 125.265625 " fill-opacity="1" fill-rule="evenodd"/><path fill="#5c689a" d="M 216.25 111.347656 L 216.25 100.007812 C 216.25 98.597656 215.238281 97.386719 213.851562 97.136719 L 185.199219 91.914062 C 184.199219 91.730469 183.164062 92.09375 182.488281 92.855469 C 181.808594 93.625 181.582031 94.695312 181.894531 95.671875 L 186.347656 109.742188 C 186.695312 110.847656 187.671875 111.648438 188.828125 111.761719 L 213.035156 114.253906 C 213.851562 114.339844 214.671875 114.070312 215.285156 113.515625 C 215.898438 112.964844 216.25 112.179688 216.25 111.347656 Z M 216.25 111.347656 " fill-opacity="1" fill-rule="evenodd"/><path fill="#765ea9" d="M 156.808594 184.839844 C 159.355469 192.0625 157.082031 199.964844 151.195312 207.269531 C 151.183594 207.289062 151.167969 207.308594 151.152344 207.324219 C 150.621094 208.035156 150.5 208.96875 150.847656 209.785156 C 151.203125 210.628906 151.984375 211.203125 152.886719 211.292969 C 155.605469 211.574219 158.800781 211.894531 160.644531 212.078125 C 161.144531 212.125 161.644531 212.023438 162.074219 211.789062 C 162.453125 211.582031 162.773438 211.28125 163.007812 210.902344 C 167.164062 204.132812 169.429688 196.882812 169.152344 189 C 169.070312 186.832031 168.800781 184.605469 168.324219 182.335938 C 168.074219 181.1875 167.0625 180.367188 165.890625 180.367188 C 164.003906 180.363281 161.101562 180.363281 158.714844 180.363281 C 157.882812 180.363281 157.101562 180.777344 156.636719 181.472656 C 156.171875 182.171875 156.09375 183.050781 156.410156 183.820312 C 156.558594 184.160156 156.6875 184.496094 156.808594 184.839844 Z M 156.808594 184.839844 " fill-opacity="1" fill-rule="evenodd"/><path fill="#5c689a" d="M 178.800781 134.414062 L 136.777344 176.875 C 136.503906 176.210938 136.273438 175.53125 136.082031 174.84375 C 135.863281 174.078125 135.699219 173.304688 135.582031 172.507812 C 133.183594 156.324219 152.203125 139.898438 178.800781 134.414062 Z M 178.800781 134.414062 " fill-opacity="1" fill-rule="evenodd"/><path fill="#d45e8c" d="M 310.992188 99.554688 C 310.992188 99.554688 316.96875 95.164062 321.519531 99.554688 C 325.59375 103.476562 326.300781 117.214844 325.78125 125.265625 C 314.050781 132.105469 309.964844 124.488281 306.042969 114.707031 C 302.105469 104.886719 310.992188 99.554688 310.992188 99.554688 Z M 310.992188 99.554688 " fill-opacity="1" fill-rule="evenodd"/><path fill="#57a4fe" d="M 235.632812 102.523438 C 235.714844 103.046875 235.769531 103.574219 235.804688 104.097656 Z M 235.632812 102.523438 " fill-opacity="1" fill-rule="evenodd"/><path fill="#54395b" d="M 241.40625 157.246094 L 237.492188 120.09375 L 225.71875 117.691406 L 225.71875 106.925781 C 222.871094 104.203125 219.652344 103.714844 216.25 104.355469 L 216.25 111.347656 C 216.25 112.179688 215.898438 112.964844 215.285156 113.515625 C 214.671875 114.070312 213.851562 114.339844 213.035156 114.253906 L 188.828125 111.761719 C 187.671875 111.648438 186.695312 110.847656 186.347656 109.742188 L 183.074219 99.390625 C 183.074219 99.390625 151.953125 110.285156 142.71875 115.414062 C 138.390625 117.820312 137.707031 123.507812 137.890625 127.859375 C 143.417969 128.007812 149.957031 135.050781 146.023438 138.425781 C 146.023438 138.425781 137.953125 145.070312 129.589844 152.996094 L 136.082031 174.84375 C 135.863281 174.078125 135.699219 173.304688 135.582031 172.507812 C 133.183594 156.324219 152.203125 139.898438 178.800781 134.414062 L 180.4375 132.757812 L 181.71875 133.859375 C 182.421875 133.734375 183.128906 133.625 183.835938 133.515625 C 202.796875 130.707031 220.3125 134.121094 230.957031 141.570312 C 236.703125 145.589844 240.453125 150.785156 241.34375 156.808594 C 241.367188 156.953125 241.386719 157.101562 241.40625 157.246094 Z M 241.40625 157.246094 " fill-opacity="1" fill-rule="evenodd"/><path fill="#5c689a" d="M 225.71875 117.691406 L 244.402344 121.496094 L 243.867188 106.632812 L 225.71875 102.523438 Z M 225.71875 117.691406 " fill-opacity="1" fill-rule="evenodd"/><path fill="#54395b" d="M 120.515625 122.457031 L 124.722656 136.625 C 130.496094 131.890625 134.527344 128.863281 134.527344 128.863281 C 135.519531 128.128906 136.679688 127.832031 137.890625 127.859375 C 137.707031 123.507812 138.390625 117.820312 142.71875 115.414062 C 151.953125 110.285156 183.074219 99.390625 183.074219 99.390625 L 181.894531 95.671875 C 181.582031 94.695312 181.808594 93.625 182.488281 92.855469 C 183.164062 92.09375 184.199219 91.730469 185.199219 91.914062 L 213.851562 97.136719 C 215.238281 97.386719 216.25 98.597656 216.25 100.007812 L 216.25 104.355469 C 219.652344 103.714844 222.871094 104.203125 225.71875 106.925781 L 225.71875 102.523438 L 235.878906 104.824219 L 235.632812 102.523438 C 235.632812 102.5 235.628906 102.46875 235.628906 102.445312 C 232.832031 83.632812 204.636719 72.214844 172.699219 76.953125 C 140.761719 81.699219 117.097656 100.820312 119.886719 119.621094 C 120.035156 120.585938 120.242188 121.535156 120.515625 122.457031 Z M 120.515625 122.457031 " fill-opacity="1" fill-rule="evenodd"/><path fill="#59688c" d="M 167.863281 243.546875 L 180.710938 230.472656 C 180.617188 230.441406 180.527344 230.410156 180.4375 230.378906 C 167.042969 225.78125 163.164062 217.097656 162.074219 211.789062 C 161.644531 212.023438 161.144531 212.125 160.644531 212.078125 C 158.800781 211.894531 155.605469 211.574219 152.886719 211.292969 C 151.984375 211.203125 151.203125 210.628906 150.847656 209.785156 C 150.5 208.96875 150.621094 208.035156 151.152344 207.324219 C 150.929688 207.3125 150.703125 207.300781 150.46875 207.28125 C 141.699219 206.695312 129.476562 205.394531 117.921875 203.007812 Z M 167.863281 243.546875 " fill-opacity="1" fill-rule="evenodd"/><path fill="#59688c" d="M 208.167969 202.542969 L 232.792969 177.5 L 180.4375 132.757812 L 130.421875 183.292969 C 139.320312 184.269531 149.523438 184.632812 156.808594 184.839844 C 156.6875 184.496094 156.558594 184.160156 156.410156 183.820312 C 156.09375 183.050781 156.171875 182.171875 156.636719 181.472656 C 157.101562 180.777344 157.882812 180.363281 158.714844 180.363281 C 161.101562 180.363281 164.003906 180.363281 165.890625 180.367188 C 167.0625 180.367188 168.074219 181.1875 168.324219 182.335938 C 168.800781 184.605469 169.070312 186.832031 169.152344 189 C 170.664062 188.9375 173.320312 188.785156 176.367188 188.425781 C 181.132812 187.867188 191.289062 183.777344 195.132812 182.402344 C 201.015625 180.300781 209.417969 189.125 201.4375 193.609375 L 190.089844 199.910156 C 190.089844 199.910156 201.320312 197.644531 208.167969 202.542969 Z M 208.167969 202.542969 " fill-opacity="1" fill-rule="evenodd"/><path fill="#765ea9" d="M 298.972656 147.050781 C 298.855469 147.433594 298.699219 147.820312 298.496094 148.195312 C 294.558594 155.617188 279.199219 174.964844 267.207031 177.5 C 260.648438 178.878906 249.113281 172.96875 240 167.316406 C 241.226562 164.253906 241.753906 161.101562 241.476562 157.957031 C 241.460938 157.71875 241.4375 157.484375 241.40625 157.246094 L 240.121094 145.082031 C 246.710938 150.566406 258.707031 159.542969 265.042969 158.132812 C 272.226562 156.527344 283.101562 140.226562 286.679688 136.257812 C 286.742188 136.191406 286.800781 136.128906 286.871094 136.070312 C 290.339844 140.628906 294.15625 144.355469 298.972656 147.050781 Z M 298.972656 147.050781 " fill-opacity="1" fill-rule="evenodd"/><path fill="#57a4fe" d="M 241.476562 157.957031 L 241.40625 157.246094 C 241.4375 157.484375 241.460938 157.71875 241.476562 157.957031 Z M 241.476562 157.957031 " fill-opacity="1" fill-rule="evenodd"/><path fill="#54395b" d="M 239.683594 105.6875 L 271.082031 75.882812 L 155.960938 25.074219 L 65.804688 120.917969 L 123.113281 131.195312 L 120.515625 122.457031 C 120.242188 121.535156 120.035156 120.585938 119.886719 119.621094 C 117.097656 100.820312 140.761719 81.699219 172.699219 76.953125 C 204.636719 72.214844 232.832031 83.632812 235.628906 102.445312 C 235.628906 102.46875 235.632812 102.5 235.632812 102.523438 C 235.714844 103.046875 235.769531 103.574219 235.804688 104.097656 L 235.878906 104.824219 Z M 239.683594 105.6875 " fill-opacity="1" fill-rule="evenodd"/><path fill="#d45e8c" d="M 208.167969 202.542969 C 209.871094 203.757812 211.304688 205.421875 212.226562 207.667969 C 216.09375 217.089844 197.386719 235.917969 180.710938 230.472656 C 180.617188 230.441406 180.527344 230.410156 180.4375 230.378906 C 167.042969 225.78125 163.164062 217.097656 162.074219 211.789062 C 162.453125 211.582031 162.773438 211.28125 163.007812 210.902344 C 167.164062 204.132812 169.429688 196.882812 169.152344 189 C 170.664062 188.9375 173.320312 188.785156 176.367188 188.425781 C 181.132812 187.867188 191.289062 183.777344 195.132812 182.402344 C 201.015625 180.300781 209.417969 189.125 201.4375 193.609375 L 190.089844 199.910156 C 190.089844 199.910156 201.320312 197.644531 208.167969 202.542969 Z M 208.167969 202.542969 " fill-opacity="1" fill-rule="evenodd"/><path fill="#5c689a" d="M 240 167.316406 C 238.101562 172.074219 234.535156 176.625 229.667969 180.675781 L 232.792969 177.5 L 181.71875 133.859375 C 182.421875 133.734375 183.128906 133.625 183.835938 133.515625 C 202.796875 130.707031 220.3125 134.121094 230.957031 141.570312 C 236.703125 145.589844 240.453125 150.785156 241.34375 156.808594 C 241.367188 156.953125 241.386719 157.101562 241.40625 157.246094 L 241.476562 157.957031 C 241.753906 161.101562 241.226562 164.253906 240 167.316406 Z M 240 167.316406 " fill-opacity="1" fill-rule="evenodd"/><path fill="#765ea9" d="M 124.722656 136.625 C 109.511719 149.089844 82.195312 173.363281 84.621094 185.230469 C 86.183594 192.886719 97.789062 198.105469 111.589844 201.566406 C 113.660156 202.085938 115.777344 202.566406 117.921875 203.007812 C 129.476562 205.394531 141.699219 206.695312 150.46875 207.28125 C 150.703125 207.300781 150.929688 207.3125 151.152344 207.324219 C 151.167969 207.308594 151.183594 207.289062 151.195312 207.269531 C 157.082031 199.964844 159.355469 192.0625 156.808594 184.839844 C 149.523438 184.632812 139.320312 184.269531 130.421875 183.292969 C 120.917969 182.25 112.90625 180.507812 111.546875 177.5 C 109.648438 173.289062 119.8125 162.269531 129.589844 152.996094 C 137.953125 145.070312 146.023438 138.425781 146.023438 138.425781 C 149.957031 135.050781 143.417969 128.007812 137.890625 127.859375 C 136.679688 127.832031 135.519531 128.128906 134.527344 128.863281 C 134.527344 128.863281 130.496094 131.890625 124.722656 136.625 Z M 124.722656 136.625 " fill-opacity="1" fill-rule="evenodd"/><path fill="#765ea9" d="M 298.972656 147.050781 C 300.324219 147.800781 301.746094 148.476562 303.265625 149.0625 C 305.183594 149.796875 307.351562 149.15625 308.5625 147.5 C 308.609375 147.464844 308.640625 147.421875 308.671875 147.371094 C 309.453125 146.304688 309.726562 144.941406 309.421875 143.652344 C 309.203125 142.707031 308.683594 141.863281 307.957031 141.246094 C 307.695312 141.023438 307.40625 140.820312 307.089844 140.660156 C 301.09375 137.566406 296.046875 132.855469 291.609375 126.980469 C 291.382812 126.683594 291.125 126.414062 290.84375 126.1875 C 289.277344 124.917969 286.992188 124.8125 285.292969 126.058594 C 285.28125 126.058594 285.277344 126.066406 285.269531 126.070312 C 283.304688 127.511719 282.828125 130.242188 284.183594 132.269531 C 285.0625 133.589844 285.953125 134.859375 286.871094 136.070312 C 290.339844 140.628906 294.15625 144.355469 298.972656 147.050781 Z M 298.972656 147.050781 " fill-opacity="1" fill-rule="evenodd"/><path fill="#d2b6d7" d="M 111.589844 201.566406 C 108.578125 204.234375 106.988281 208.089844 106.0625 212.496094 L 154.605469 258.453125 C 153.167969 249.660156 154.078125 242.390625 167.863281 243.546875 L 117.921875 203.007812 C 115.777344 202.566406 113.660156 202.085938 111.589844 201.566406 Z M 111.589844 201.566406 " fill-opacity="1" fill-rule="evenodd"/><path fill="#d3744f" d="M 266.417969 111.566406 C 266.535156 111.550781 266.648438 111.535156 266.773438 111.53125 C 270.9375 111.183594 274.601562 114.292969 274.945312 118.457031 C 275.179688 121.375 273.726562 124.054688 271.394531 125.507812 L 277.851562 135.402344 L 259.761719 136.898438 L 264.507812 126.078125 C 261.964844 125.027344 260.089844 122.628906 259.847656 119.703125 C 259.511719 115.652344 262.429688 112.082031 266.417969 111.566406 Z M 266.417969 111.566406 " fill-opacity="1" fill-rule="evenodd"/><path fill="#8fb4e0" d="M 87.015625 184.742188 C 87.527344 187.257812 89.46875 189.375 92.210938 191.289062 C 97.019531 194.640625 104.230469 197.207031 112.1875 199.195312 L 112.191406 199.203125 C 114.226562 199.710938 116.308594 200.179688 118.414062 200.613281 L 118.421875 200.613281 C 129.589844 202.921875 141.394531 204.203125 150.023438 204.804688 C 152.082031 198.285156 148.242188 198.738281 148.242188 198.738281 C 148.242188 198.738281 103.226562 199.269531 96.535156 183.542969 C 89.867188 167.875 137.28125 130.566406 137.632812 130.292969 C 137.75 130.304688 137.871094 130.308594 137.992188 130.304688 C 138 130.304688 138 130.304688 138.007812 130.304688 C 138.519531 130.339844 139.039062 130.46875 139.550781 130.644531 C 141.164062 131.207031 142.707031 132.335938 143.734375 133.625 C 144.199219 134.207031 144.550781 134.804688 144.710938 135.410156 C 144.820312 135.824219 144.796875 136.246094 144.453125 136.550781 C 143.941406 136.980469 136.136719 143.433594 128.023438 151.121094 C 127.941406 151.191406 127.875 151.257812 127.808594 151.332031 C 123.4375 155.476562 118.996094 159.964844 115.570312 164.046875 C 112.304688 167.933594 109.957031 171.53125 109.195312 174.1875 C 108.710938 175.898438 108.804688 177.351562 109.324219 178.507812 C 109.914062 179.8125 111.257812 181.089844 113.382812 182.089844 C 116.976562 183.78125 123.171875 184.957031 130.152344 185.726562 L 130.160156 185.726562 C 138.421875 186.628906 147.800781 187.007812 154.972656 187.234375 C 156.339844 192.957031 154.371094 199.050781 150.023438 204.804688 C 141.394531 204.210938 129.589844 202.921875 118.421875 200.621094 L 118.414062 200.621094 C 116.308594 200.179688 114.226562 199.710938 112.191406 199.203125 L 112.1875 199.203125 C 104.230469 197.207031 97.019531 194.640625 92.210938 191.289062 C 89.464844 189.375 87.527344 187.257812 87.015625 184.742188 Z M 87.015625 184.742188 " fill-opacity="1" fill-rule="evenodd"/><path fill="#8fb4e0" d="M 160.882812 209.644531 C 160.886719 209.652344 160.882812 209.632812 160.882812 209.644531 C 160.882812 209.644531 160.886719 209.644531 160.886719 209.644531 C 163.375 205.796875 162.511719 201.425781 162.101562 200.535156 C 161.878906 200.046875 160.089844 199.824219 158.519531 199.726562 C 160.605469 194.445312 160.894531 189.101562 159.125 184.070312 C 159.117188 184.046875 159.109375 184.019531 159.097656 183.996094 C 158.964844 183.625 158.824219 183.246094 158.664062 182.871094 C 158.660156 182.859375 158.664062 182.84375 158.671875 182.832031 C 158.683594 182.816406 158.695312 182.804688 158.714844 182.804688 C 161.101562 182.804688 164.003906 182.804688 165.882812 182.8125 L 165.890625 182.8125 C 165.90625 182.8125 165.925781 182.824219 165.933594 182.84375 C 168.007812 192.707031 165.902344 201.523438 160.929688 209.621094 C 160.929688 209.628906 160.925781 209.632812 160.917969 209.632812 C 160.914062 209.640625 160.914062 209.640625 160.90625 209.640625 C 160.898438 209.644531 160.875 209.640625 160.882812 209.644531 Z M 160.882812 209.644531 " fill-opacity="1" fill-rule="evenodd"/><path fill="#fccdc0" d="M 164.789062 212.621094 C 166.152344 217.445312 170.140625 224.261719 181.230469 228.070312 C 181.308594 228.09375 181.386719 228.125 181.472656 228.148438 C 190.535156 231.113281 200.203125 225.996094 205.777344 219.714844 C 205.789062 219.699219 205.808594 219.679688 205.820312 219.660156 C 194.394531 224.753906 181.023438 224.261719 176.941406 212.035156 C 172.40625 198.410156 182.285156 190.734375 189.40625 187.117188 C 192.082031 186.152344 194.476562 185.234375 195.957031 184.703125 C 197.515625 184.148438 199.304688 184.886719 200.601562 186 C 201.652344 186.910156 202.488281 188.105469 202.222656 189.335938 C 202.054688 190.144531 201.375 190.84375 200.246094 191.476562 L 188.90625 197.773438 C 187.855469 198.359375 187.386719 199.625 187.800781 200.753906 C 188.214844 201.882812 189.394531 202.542969 190.574219 202.304688 C 190.574219 202.304688 200.628906 200.15625 206.75 204.535156 C 208.097656 205.5 209.234375 206.8125 209.96875 208.59375 C 210.53125 209.976562 210.339844 211.628906 209.730469 213.371094 C 208.984375 215.472656 207.597656 217.660156 205.777344 219.714844 C 200.203125 225.996094 190.535156 231.113281 181.472656 228.15625 L 181.472656 228.148438 C 181.386719 228.125 181.308594 228.101562 181.230469 228.070312 C 170.132812 224.261719 166.152344 217.445312 164.789062 212.621094 Z M 164.789062 212.621094 " fill-opacity="1" fill-rule="evenodd"/><path fill="#8fb4e0" d="M 243.96875 158.578125 C 250.253906 162.628906 260.953125 166.097656 266.9375 167.550781 C 273.214844 169.070312 284.757812 151.792969 288.019531 146.683594 C 288.230469 146.351562 288.574219 146.113281 288.964844 146.042969 C 289.355469 145.96875 289.753906 146.066406 290.074219 146.296875 C 293.214844 148.667969 295.738281 148.015625 295.808594 147.996094 C 293.183594 152.515625 287.273438 160.269531 280.609375 166.433594 C 276.042969 170.652344 271.144531 174.171875 266.699219 175.105469 C 264.421875 175.585938 261.464844 174.957031 258.21875 173.828125 C 253.324219 172.136719 247.871094 169.222656 242.960938 166.269531 C 243.742188 163.734375 244.09375 161.15625 243.96875 158.578125 Z M 243.96875 158.578125 " fill-opacity="1" fill-rule="evenodd"/><path fill="#8fb4e0" d="M 294.820312 141.136719 C 295.449219 140.210938 295.710938 138.957031 295.808594 137.765625 C 293.03125 135.3125 290.460938 132.472656 288.066406 129.296875 C 287.632812 128.722656 286.957031 128.433594 286.277344 128.464844 C 286.382812 128.335938 286.496094 128.214844 286.632812 128.105469 C 286.667969 128.082031 286.703125 128.054688 286.734375 128.03125 C 287.664062 127.347656 288.964844 127.539062 289.660156 128.453125 C 294.332031 134.640625 299.652344 139.566406 305.964844 142.828125 C 306.105469 142.902344 306.242188 142.988281 306.355469 143.089844 L 306.375 143.105469 C 306.703125 143.390625 306.941406 143.78125 307.046875 144.214844 C 307.175781 144.777344 307.078125 145.363281 306.765625 145.839844 C 306.699219 145.914062 306.636719 145.988281 306.582031 146.066406 C 306.027344 146.828125 305.023438 147.121094 304.144531 146.785156 C 300.554688 145.394531 297.519531 143.488281 294.820312 141.136719 Z M 294.820312 141.136719 " fill-opacity="1" fill-rule="evenodd"/><path fill="#fccdc0" d="M 323.429688 123.519531 C 321.214844 122.878906 317.78125 121.355469 315.472656 117.832031 C 312.15625 112.78125 312.867188 103.003906 313.039062 101.15625 C 313.527344 100.875 314.28125 100.507812 315.179688 100.269531 C 316.546875 99.902344 318.3125 99.855469 319.828125 101.3125 C 321.378906 102.808594 322.179688 106.039062 322.742188 109.703125 C 323.441406 114.230469 323.59375 119.414062 323.429688 123.519531 Z M 323.429688 123.519531 " fill-opacity="1" fill-rule="evenodd"/><path fill="#fccdc0" d="M 322.214844 129.582031 C 306.171875 135.984375 303.234375 118.675781 301.402344 111.132812 C 298.710938 100.007812 302.496094 91.671875 302.570312 91.511719 C 303.484375 90.859375 304.21875 90.535156 304.882812 90.625 C 305.261719 90.679688 305.554688 90.914062 305.824219 91.195312 C 306.308594 91.695312 306.679688 92.367188 306.992188 93.082031 C 307.804688 94.925781 308.210938 97.074219 308.410156 98.425781 C 305.703125 100.609375 300.121094 106.5 303.773438 115.617188 C 305.28125 119.378906 306.839844 122.824219 308.769531 125.371094 C 310.269531 127.339844 312.003906 128.808594 314.050781 129.613281 C 316.28125 130.5 318.953125 130.640625 322.214844 129.582031 Z M 322.214844 129.582031 " fill-opacity="1" fill-rule="evenodd"/><path fill="#fde266" d="M 270.320312 123.292969 C 270.496094 123.035156 270.65625 122.753906 270.789062 122.46875 C 269.960938 123 268.976562 123.3125 267.921875 123.3125 C 265 123.3125 262.632812 120.933594 262.632812 118.015625 C 262.632812 117.636719 262.667969 117.269531 262.742188 116.910156 C 263.460938 115.371094 264.933594 114.230469 266.71875 113.992188 C 266.730469 113.992188 266.734375 113.992188 266.75 113.992188 C 266.820312 113.980469 266.902344 113.972656 266.972656 113.96875 C 269.796875 113.730469 272.273438 115.835938 272.507812 118.65625 C 272.664062 120.542969 271.773438 122.285156 270.320312 123.292969 Z M 270.320312 123.292969 " fill-opacity="1" fill-rule="evenodd"/><path fill="#fde266" d="M 271.554688 133.472656 L 268.0625 128.128906 C 267.707031 127.578125 267.585938 126.90625 267.726562 126.265625 C 267.867188 125.625 268.261719 125.070312 268.816406 124.722656 C 268.941406 124.640625 269.070312 124.558594 269.183594 124.472656 C 269.105469 124.628906 269.050781 124.808594 269.007812 124.984375 C 268.867188 125.625 268.988281 126.296875 269.351562 126.847656 L 273.5625 133.308594 Z M 271.554688 133.472656 " fill-opacity="1" fill-rule="evenodd"/><path fill="#fcf4a9" d="M 226.742188 275.679688 C 227.078125 277.445312 228.097656 280.75 231.238281 283.1875 C 234.390625 285.636719 239.53125 287.109375 247.847656 285.867188 C 254.988281 278.265625 272.03125 248.78125 281.289062 230.863281 C 254.40625 224.445312 255.933594 242.257812 255.933594 242.257812 C 256.378906 243.050781 256.703125 243.492188 256.703125 243.492188 C 257.195312 244.136719 257.335938 244.988281 257.074219 245.757812 C 257.335938 244.988281 257.195312 244.136719 256.703125 243.492188 C 256.703125 243.492188 248.617188 232.707031 258.636719 221.304688 C 262.816406 216.554688 268.550781 215.699219 273.894531 216.265625 C 278.84375 216.796875 283.503906 218.542969 286.570312 219.9375 C 281.40625 232.253906 256.820312 276.316406 247.847656 285.867188 C 239.53125 287.109375 234.390625 285.636719 231.238281 283.1875 C 228.097656 280.75 227.078125 277.445312 226.742188 275.679688 Z M 226.742188 275.679688 " fill-opacity="1" fill-rule="evenodd"/><path fill="#94d3bf" d="M 207.78125 199.453125 C 205.339844 198.175781 202.585938 197.515625 199.972656 197.21875 C 199.972656 197.21875 202.621094 195.746094 202.621094 195.746094 C 202.628906 195.742188 202.628906 195.742188 202.632812 195.742188 C 205.332031 194.226562 206.597656 192.273438 207.007812 190.347656 C 207.609375 187.484375 206.242188 184.417969 203.789062 182.300781 C 201.179688 180.058594 197.460938 178.984375 194.308594 180.105469 C 190.574219 181.4375 180.710938 185.457031 176.082031 186 C 174.351562 186.207031 172.753906 186.339844 171.429688 186.433594 C 171.277344 184.917969 171.042969 183.386719 170.714844 181.835938 C 170.714844 181.828125 170.714844 181.828125 170.714844 181.824219 C 170.226562 179.550781 168.214844 177.925781 165.890625 177.925781 C 164.007812 177.921875 161.109375 177.921875 158.714844 177.921875 C 157.066406 177.921875 155.519531 178.746094 154.605469 180.125 C 154.164062 180.785156 153.894531 181.535156 153.808594 182.304688 C 148.4375 182.132812 141.992188 181.863281 135.785156 181.351562 L 138.484375 178.621094 C 138.5 178.605469 138.519531 178.585938 138.539062 178.566406 L 180.570312 136.09375 C 180.570312 136.09375 229.214844 177.652344 229.214844 177.652344 L 227.945312 178.945312 C 227.925781 178.957031 227.914062 178.96875 227.902344 178.984375 Z M 207.78125 199.453125 " fill-opacity="1" fill-rule="evenodd"/><path fill="#fcf4a9" d="M 255.394531 247.332031 C 256.554688 248.535156 257.832031 249.957031 258.949219 251.410156 C 260.476562 253.410156 261.679688 255.492188 262.191406 257.269531 C 262.851562 259.535156 261.546875 261.902344 259.273438 262.5625 C 257.007812 263.21875 254.636719 261.910156 253.980469 259.644531 C 253.59375 258.300781 252.332031 256.75 251.085938 255.289062 C 250.695312 254.832031 250.296875 254.386719 249.90625 253.957031 C 251.433594 256.292969 252.847656 258.949219 253.238281 261.230469 C 253.636719 263.558594 252.074219 265.769531 249.746094 266.167969 C 249.453125 266.214844 249.167969 266.234375 248.878906 266.226562 C 248.945312 270.929688 248.304688 274.679688 245.625 275.851562 C 237.96875 279.191406 226.890625 275.722656 226.742188 275.679688 C 227.867188 274.730469 229.191406 273.28125 230.527344 271.503906 C 234.152344 266.699219 238.246094 259.492188 239.816406 255.644531 C 240.238281 255.3125 240.917969 254.796875 241.808594 254.160156 C 242.515625 255.019531 243.421875 256.167969 244.257812 257.425781 C 245.324219 259.027344 246.351562 260.796875 246.621094 262.367188 C 246.847656 263.691406 248.109375 264.589844 249.4375 264.363281 C 250.765625 264.132812 251.664062 262.875 251.433594 261.542969 C 250.863281 258.203125 247.910156 254.027344 245.898438 251.503906 C 246.742188 251.007812 247.644531 250.507812 248.585938 250.027344 C 249.589844 250.976562 251.078125 252.460938 252.476562 254.097656 C 253.910156 255.773438 255.296875 257.59375 255.742188 259.136719 C 256.117188 260.433594 257.472656 261.175781 258.765625 260.804688 C 260.0625 260.425781 260.8125 259.070312 260.433594 257.777344 C 259.976562 256.179688 258.871094 254.324219 257.496094 252.53125 C 256.214844 250.855469 254.707031 249.226562 253.429688 247.9375 C 254.082031 247.710938 254.734375 247.507812 255.394531 247.332031 Z M 255.394531 247.332031 " fill-opacity="1" fill-rule="evenodd"/><path fill="#fde266" d="M 267.621094 277.238281 L 267.621094 268.414062 C 261.160156 279.175781 255.015625 288.542969 251.421875 292.296875 C 251.15625 292.769531 250.316406 294.265625 249.617188 295.511719 C 249.226562 295.339844 248.878906 295.132812 248.605469 294.886719 C 248.511719 294.808594 248.433594 294.730469 248.367188 294.644531 C 248.347656 294.621094 248.324219 294.578125 248.304688 294.546875 C 248.496094 294.203125 250.679688 290.308594 251.140625 289.488281 C 260.050781 280.183594 284.660156 236.347656 290.796875 222.421875 C 292.019531 224.027344 294.191406 228.753906 289.269531 239.039062 C 286.417969 245.003906 275.707031 263.460938 267.621094 277.238281 Z M 267.621094 277.238281 " fill-opacity="1" fill-rule="evenodd"/><path fill="#fde266" d="M 235.519531 253.242188 C 235.488281 253.3125 235.464844 253.378906 235.445312 253.445312 C 234.277344 256.695312 230.167969 263.863281 226.628906 268.558594 C 225.253906 270.386719 224.066406 271.859375 223.160156 272.285156 C 223.132812 272.296875 223.101562 272.308594 223.078125 272.324219 C 222.132812 272.757812 221.328125 272.867188 220.640625 272.660156 C 219.640625 272.363281 219.011719 271.460938 218.6875 270.550781 C 218.542969 270.128906 218.460938 269.703125 218.46875 269.300781 C 218.472656 269.121094 218.546875 268.839844 218.570312 268.769531 C 219.734375 267.890625 221.3125 266.074219 222.964844 263.785156 C 226.558594 258.78125 230.664062 251.484375 231.761719 248.480469 C 231.941406 248.003906 232.140625 247.644531 232.464844 247.492188 C 232.929688 247.257812 233.472656 247.496094 233.96875 247.816406 C 235.328125 248.699219 236.277344 250.65625 235.621094 252.910156 C 235.589844 253.011719 235.554688 253.128906 235.519531 253.242188 Z M 235.519531 253.242188 " fill-opacity="1" fill-rule="evenodd"/><path fill="#fde266" d="M 141.644531 326.816406 L 147.085938 322.589844 C 146.042969 322.398438 144.984375 322.199219 143.921875 321.976562 C 131.53125 319.449219 118.496094 315.011719 109.367188 307.425781 C 103.148438 302.257812 92.328125 294.515625 86.90625 290.6875 C 87.265625 290.09375 87.664062 289.496094 88.097656 288.898438 C 92.824219 292.210938 105.132812 300.957031 111.941406 306.613281 C 121.066406 314.191406 134.109375 318.632812 146.496094 321.160156 C 159.898438 323.894531 172.496094 324.425781 178.269531 324.519531 C 177.414062 327.089844 176.441406 329.179688 175.832031 330.386719 C 171.605469 330.515625 157.859375 330.582031 141.644531 326.816406 Z M 141.644531 326.816406 " fill-opacity="1" fill-rule="evenodd"/><path fill="#fcf4a9" d="M 91.160156 285.078125 C 96.125 288.574219 108.285156 297.21875 115.0625 302.851562 C 123.613281 309.953125 135.867188 314.003906 147.472656 316.371094 C 154.257812 317.757812 160.832031 318.566406 166.359375 319.027344 C 168.355469 296.304688 131.378906 302.0625 130.941406 302.128906 C 132.652344 301.191406 137.164062 298.925781 143.34375 297.5 L 143.351562 297.496094 C 149.015625 296.1875 156.089844 295.589844 163.710938 297.378906 C 170.511719 298.972656 174.746094 301.726562 177.179688 305.125 C 180.363281 309.558594 180.417969 314.941406 179.539062 319.644531 C 174.730469 319.613281 161.558594 319.253906 147.472656 316.371094 C 135.867188 314.003906 123.613281 309.953125 115.0625 302.851562 C 108.285156 297.21875 96.121094 288.574219 91.160156 285.078125 Z M 91.160156 285.078125 " fill-opacity="1" fill-rule="evenodd"/><path fill="#fcf4a9" d="M 118.929688 294.085938 C 110.648438 286.058594 106.421875 271.492188 106.375 271.328125 C 107.535156 274.476562 109.925781 278.882812 114.746094 281.757812 C 117.859375 283.613281 122.011719 284.867188 127.539062 284.628906 C 127.949219 285.398438 128.382812 286.136719 128.847656 286.851562 C 125.898438 287.542969 122.074219 288.910156 119.476562 291.566406 C 118.808594 292.253906 118.625 293.238281 118.929688 294.085938 Z M 118.929688 294.085938 " fill-opacity="1" fill-rule="evenodd"/><path fill="#fcf4a9" d="M 126.453125 300.535156 C 126.441406 299.945312 126.648438 299.351562 127.042969 298.894531 C 124.742188 298.339844 122.628906 297.191406 120.707031 295.65625 C 121.507812 295.835938 122.367188 295.601562 122.976562 294.980469 C 125.714844 292.175781 130.289062 291.359375 132.359375 291.125 C 133.585938 292.335938 134.933594 293.433594 136.40625 294.421875 C 130.921875 296.328125 127.59375 298.425781 127.59375 298.425781 C 126.84375 298.894531 126.433594 299.710938 126.453125 300.535156 Z M 126.453125 300.535156 " fill-opacity="1" fill-rule="evenodd"/><path fill="#fde266" d="M 128.792969 279.652344 C 123.710938 280.128906 119.972656 279.1875 117.25 277.5625 C 111.101562 273.890625 110.203125 266.898438 110.203125 266.898438 C 110.203125 266.875 110.195312 266.851562 110.195312 266.832031 L 110.195312 266.824219 C 109.878906 264.785156 110.332031 263.355469 111.277344 262.851562 C 111.410156 262.785156 111.546875 262.714844 111.667969 262.765625 C 111.832031 262.824219 111.894531 263.019531 111.96875 263.246094 C 114 269.617188 116.875 273 119.84375 274.746094 C 122.988281 276.597656 126.347656 276.695312 129.425781 276.175781 C 131.09375 275.894531 132.277344 276.351562 132.351562 277.359375 C 132.4375 278.550781 131.113281 279.429688 128.792969 279.652344 Z M 128.792969 279.652344 " fill-opacity="1" fill-rule="evenodd"/><path fill="#52616c" d="M 173.066406 133.257812 C 173.066406 124.277344 173.066406 114.277344 173.066406 105.589844 C 176.5625 104.300781 179.554688 103.230469 181.503906 102.535156 L 184.015625 110.480469 C 184.660156 112.515625 186.449219 113.972656 188.574219 114.195312 L 212.78125 116.683594 C 214.292969 116.835938 215.792969 116.347656 216.921875 115.328125 C 218.046875 114.316406 218.695312 112.867188 218.695312 111.355469 L 218.695312 106.554688 C 220.300781 106.546875 221.84375 106.960938 223.273438 108.050781 L 223.273438 117.691406 C 223.273438 118.851562 224.09375 119.855469 225.230469 120.085938 L 235.25 122.125 L 237.558594 144.050781 C 236.054688 142.4375 234.316406 140.941406 232.359375 139.566406 C 221.308594 131.835938 203.152344 128.183594 183.484375 131.105469 C 183.136719 131.152344 182.785156 131.207031 182.4375 131.261719 L 182.023438 130.902344 C 181.046875 130.070312 179.597656 130.132812 178.695312 131.042969 L 177.578125 132.171875 C 176.050781 132.503906 174.542969 132.867188 173.066406 133.257812 Z M 173.066406 133.257812 " fill-opacity="1" fill-rule="evenodd"/><path fill="#52616c" d="M 173.066406 100.398438 C 173.058594 95.433594 173.058594 91.144531 173.058594 88.078125 C 173.058594 86.832031 172.492188 85.65625 171.527344 84.878906 C 170.554688 84.097656 169.285156 83.796875 168.0625 84.066406 C 127.746094 92.875 122.335938 113.648438 122.335938 113.648438 C 123.113281 108.726562 125.785156 103.914062 129.867188 99.507812 C 138.835938 89.8125 154.523438 82.125 173.058594 79.371094 C 191.59375 76.621094 208.832031 79.421875 220.234375 86.089844 C 226.980469 90.039062 231.652344 95.328125 233.003906 101.667969 L 226.253906 100.140625 C 225.535156 99.976562 224.769531 100.152344 224.191406 100.609375 C 223.628906 101.0625 223.292969 101.742188 223.273438 102.460938 C 221.796875 101.882812 220.265625 101.636719 218.695312 101.65625 L 218.695312 100.007812 C 218.695312 97.417969 216.839844 95.199219 214.292969 94.738281 L 185.640625 89.515625 C 183.789062 89.179688 181.894531 89.832031 180.65625 91.242188 C 179.410156 92.652344 179 94.613281 179.5625 96.402344 L 180.03125 97.875 C 178.390625 98.460938 175.953125 99.339844 173.066406 100.398438 Z M 173.066406 100.398438 " fill-opacity="1" fill-rule="evenodd"/><path fill="#52616c" d="M 238.949219 103.015625 L 257.519531 78.132812 L 157.558594 38.015625 L 70.671875 119.3125 C 70.671875 119.3125 156.550781 28.011719 156.550781 28.011719 C 156.550781 28.011719 266.742188 76.636719 266.742188 76.636719 Z M 238.949219 103.015625 " fill-opacity="1" fill-rule="evenodd"/><path fill="#aab6c1" d="M 186.628906 102.535156 L 193.578125 95.925781 L 198.226562 96.769531 Z M 186.628906 102.535156 " fill-opacity="1" fill-rule="evenodd"/><path fill="#aab6c1" d="M 190.296875 109.460938 L 202.25 97.507812 L 206.1875 98.222656 L 194.519531 109.894531 Z M 190.296875 109.460938 " fill-opacity="1" fill-rule="evenodd"/><path fill="#aab6c1" d="M 200.226562 110.480469 L 211.421875 99.292969 L 211.28125 99.152344 L 213.417969 99.542969 C 213.644531 99.585938 213.808594 99.78125 213.808594 100.007812 L 213.808594 104.3125 C 213.808594 104.34375 213.808594 104.375 213.808594 104.398438 L 213.808594 111.355469 C 213.808594 111.488281 213.746094 111.617188 213.648438 111.707031 C 213.546875 111.792969 213.417969 111.835938 213.285156 111.824219 Z M 200.226562 110.480469 " fill-opacity="1" fill-rule="evenodd"/><path fill="#aab6c1" d="M 233.917969 106.890625 L 228.160156 112.648438 L 228.160156 109.839844 L 231.628906 106.371094 Z M 233.917969 106.890625 " fill-opacity="1" fill-rule="evenodd"/><path fill="#aab6c1" d="M 241.558594 110.375 L 234.871094 117.0625 L 228.160156 115.695312 L 228.160156 113.996094 L 235.023438 107.132812 L 235.292969 107.199219 C 235.324219 107.207031 235.351562 107.214844 235.390625 107.21875 L 241.492188 108.597656 C 241.492188 108.597656 241.519531 109.320312 241.558594 110.375 Z M 241.558594 110.375 " fill-opacity="1" fill-rule="evenodd"/><path fill="#aab6c1" d="M 241.742188 115.433594 L 237.632812 117.632812 L 241.675781 113.644531 C 241.699219 114.253906 241.714844 114.863281 241.742188 115.433594 Z M 241.742188 115.433594 " fill-opacity="1" fill-rule="evenodd"/><path fill="#ffffff" d="M 210.921875 174.632812 C 209.84375 173.730469 209.699219 172.128906 210.601562 171.050781 C 211.507812 169.976562 213.113281 169.828125 214.1875 170.730469 L 215.539062 171.863281 C 216.617188 172.765625 216.757812 174.371094 215.855469 175.445312 C 214.957031 176.519531 213.351562 176.667969 212.269531 175.765625 Z M 185.253906 153.15625 C 184.179688 152.253906 184.03125 150.644531 184.9375 149.570312 C 185.839844 148.492188 187.445312 148.351562 188.519531 149.246094 L 207.164062 164.851562 C 208.238281 165.753906 208.386719 167.359375 207.480469 168.4375 C 206.578125 169.515625 204.972656 169.65625 203.898438 168.757812 Z M 185.253906 153.15625 " fill-opacity="1" fill-rule="evenodd"/><path fill="#ffffff" d="M 137.308594 191.507812 C 136.609375 191.484375 136.058594 190.898438 136.078125 190.195312 C 136.09375 189.492188 136.679688 188.941406 137.382812 188.960938 C 137.65625 188.96875 137.933594 188.972656 138.214844 188.984375 C 138.917969 189 139.472656 189.585938 139.453125 190.285156 C 139.433594 190.988281 138.855469 191.542969 138.152344 191.527344 C 137.871094 191.519531 137.589844 191.515625 137.308594 191.507812 Z M 109.152344 186.402344 C 108.492188 186.152344 108.164062 185.414062 108.414062 184.761719 C 108.664062 184.101562 109.402344 183.769531 110.054688 184.019531 C 116.722656 186.566406 122.34375 187.921875 129.96875 188.566406 C 130.664062 188.625 131.183594 189.238281 131.128906 189.9375 C 131.070312 190.640625 130.453125 191.160156 129.757812 191.097656 C 121.867188 190.433594 116.046875 189.035156 109.152344 186.402344 Z M 109.152344 186.402344 " fill-opacity="1" fill-rule="evenodd"/><path fill="#ffffff" d="M 286.570312 153.679688 C 286.984375 153.121094 287.785156 152.996094 288.347656 153.417969 C 288.914062 153.835938 289.03125 154.632812 288.617188 155.195312 C 285.851562 158.941406 282.550781 162.488281 278.871094 165.902344 C 278.355469 166.378906 277.550781 166.347656 277.070312 165.828125 C 276.59375 165.316406 276.621094 164.507812 277.140625 164.03125 C 280.695312 160.734375 283.894531 157.304688 286.570312 153.679688 Z M 289.335938 149.558594 C 289.695312 148.960938 290.480469 148.765625 291.078125 149.125 C 291.683594 149.492188 291.878906 150.273438 291.511719 150.871094 C 291.425781 151.019531 291.339844 151.164062 291.25 151.304688 C 290.882812 151.902344 290.101562 152.09375 289.5 151.722656 C 288.902344 151.355469 288.714844 150.574219 289.085938 149.972656 C 289.164062 149.832031 289.25 149.699219 289.335938 149.558594 Z M 289.335938 149.558594 " fill-opacity="1" fill-rule="evenodd"/><path fill="#ffffff" d="M 278.882812 221.675781 C 278.210938 221.457031 277.851562 220.738281 278.070312 220.070312 C 278.289062 219.40625 279.003906 219.039062 279.675781 219.257812 C 280.042969 219.378906 280.410156 219.507812 280.78125 219.648438 C 281.441406 219.894531 281.777344 220.625 281.53125 221.285156 C 281.289062 221.941406 280.550781 222.273438 279.894531 222.03125 C 279.554688 221.902344 279.21875 221.785156 278.882812 221.675781 Z M 259.71875 227.546875 C 259.359375 228.144531 258.578125 228.347656 257.972656 227.984375 C 257.375 227.625 257.171875 226.84375 257.53125 226.246094 C 260.691406 220.9375 266.082031 217.785156 272.878906 218.007812 C 273.582031 218.023438 274.132812 218.617188 274.113281 219.320312 C 274.089844 220.023438 273.503906 220.570312 272.800781 220.546875 C 267.011719 220.363281 262.40625 223.027344 259.71875 227.546875 Z M 259.71875 227.546875 " fill-opacity="1" fill-rule="evenodd"/><path fill="#ffffff" d="M 169.5 304.339844 C 168.914062 303.949219 168.753906 303.164062 169.144531 302.578125 C 169.535156 301.988281 170.324219 301.832031 170.910156 302.222656 C 175.738281 305.445312 178.566406 310.46875 177.933594 316.53125 C 177.859375 317.226562 177.234375 317.734375 176.539062 317.660156 C 175.835938 317.585938 175.332031 316.964844 175.402344 316.261719 C 175.933594 311.199219 173.527344 307.027344 169.5 304.339844 Z M 162.117188 301.410156 C 161.425781 301.277344 160.972656 300.609375 161.109375 299.921875 C 161.242188 299.230469 161.90625 298.777344 162.597656 298.914062 C 162.945312 298.980469 163.289062 299.054688 163.625 299.132812 C 164.308594 299.296875 164.734375 299.980469 164.570312 300.664062 C 164.410156 301.347656 163.726562 301.769531 163.042969 301.613281 C 162.738281 301.539062 162.425781 301.472656 162.117188 301.410156 Z M 162.117188 301.410156 " fill-opacity="1" fill-rule="evenodd"/><path fill="#ffffff" d="M 200.496094 217.9375 C 199.835938 218.191406 199.097656 217.867188 198.847656 217.210938 C 198.589844 216.558594 198.914062 215.820312 199.566406 215.5625 C 200.015625 215.394531 200.453125 215.199219 200.898438 214.976562 C 201.527344 214.660156 202.292969 214.917969 202.601562 215.546875 C 202.921875 216.175781 202.664062 216.9375 202.035156 217.25 C 201.523438 217.503906 201.007812 217.738281 200.496094 217.9375 Z M 179.714844 206.746094 C 179.722656 206.042969 180.300781 205.480469 181.003906 205.492188 C 181.707031 205.503906 182.269531 206.085938 182.253906 206.789062 C 182.175781 211.429688 186.5 215.507812 191.988281 216.40625 C 192.6875 216.515625 193.15625 217.167969 193.039062 217.867188 C 192.929688 218.554688 192.277344 219.03125 191.582031 218.917969 C 184.757812 217.804688 179.617188 212.511719 179.714844 206.746094 Z M 179.714844 206.746094 " fill-opacity="1" fill-rule="evenodd"/><path fill="#ffffff" d="M 228.886719 132.042969 C 228.257812 131.726562 228.007812 130.964844 228.324219 130.335938 C 228.640625 129.710938 229.40625 129.453125 230.035156 129.773438 C 230.394531 129.957031 230.753906 130.144531 231.117188 130.335938 C 231.738281 130.664062 231.96875 131.433594 231.648438 132.054688 C 231.316406 132.671875 230.542969 132.910156 229.925781 132.582031 C 229.578125 132.398438 229.234375 132.222656 228.886719 132.042969 Z M 191.867188 125.523438 C 191.164062 125.566406 190.5625 125.035156 190.519531 124.332031 C 190.476562 123.628906 191.007812 123.023438 191.707031 122.988281 C 202.089844 122.347656 212.214844 123.160156 221.777344 126.339844 C 222.445312 126.558594 222.804688 127.285156 222.585938 127.953125 C 222.363281 128.617188 221.636719 128.976562 220.972656 128.757812 C 211.714844 125.675781 201.917969 124.90625 191.867188 125.523438 Z M 191.867188 125.523438 " fill-opacity="1" fill-rule="evenodd"/><g clip-path="url(#c53e30ebce)"><path fill="#27336b" d="M 183.882812 322.664062 C 182.304688 329.105469 179.4375 334.003906 179.4375 334.003906 C 179.027344 334.699219 178.296875 335.148438 177.484375 335.203125 C 177.484375 335.203125 143.671875 337.398438 113.429688 321.789062 C 105.652344 317.773438 80.945312 296.863281 80.945312 296.863281 C 80.28125 296.300781 79.96875 295.429688 80.117188 294.574219 C 80.691406 291.324219 82.753906 287.664062 85.667969 284.023438 C 91.25 277.054688 99.921875 270.046875 105.222656 266.066406 C 105.125 263.101562 106.179688 260.945312 107.511719 259.632812 C 108.984375 258.171875 110.871094 257.644531 112.53125 257.953125 C 114.265625 258.273438 115.882812 259.457031 116.621094 261.765625 C 118.148438 266.542969 120.097656 269.230469 122.324219 270.539062 C 124.386719 271.75 126.597656 271.699219 128.613281 271.359375 C 134.054688 270.445312 136.992188 273.738281 137.226562 277.007812 C 137.394531 279.417969 136.097656 282.300781 132.648438 283.714844 C 135.066406 287.601562 138.597656 290.496094 143.0625 292.558594 C 149.203125 291.242188 156.738281 290.722656 164.824219 292.621094 C 173.132812 294.566406 178.179688 298.140625 181.152344 302.277344 C 185.644531 308.546875 185.433594 316.3125 183.882812 322.664062 Z M 88.09375 288.898438 C 86.808594 290.6875 85.804688 292.441406 85.257812 294.117188 C 90.144531 298.226562 109.101562 314.058594 115.671875 317.445312 C 141.226562 330.636719 169.433594 330.585938 175.832031 330.390625 C 176.445312 329.179688 177.417969 327.089844 178.261719 324.515625 C 172.5 324.433594 159.898438 323.902344 146.5 321.164062 C 134.109375 318.636719 121.074219 314.195312 111.941406 306.609375 C 105.132812 300.953125 92.820312 292.21875 88.09375 288.898438 Z M 106.375 271.324219 C 101.875 274.800781 95.785156 279.855469 91.160156 285.082031 C 96.125 288.570312 108.289062 297.222656 115.0625 302.851562 C 123.613281 309.953125 135.871094 314.003906 147.476562 316.375 C 161.566406 319.25 174.730469 319.617188 179.535156 319.644531 C 180.421875 314.949219 180.359375 309.558594 177.183594 305.125 C 174.746094 301.730469 170.511719 298.972656 163.710938 297.382812 C 156.09375 295.589844 149.019531 296.191406 143.351562 297.496094 C 143.351562 297.496094 143.351562 297.496094 143.34375 297.496094 C 135.382812 299.335938 130.191406 302.566406 130.191406 302.566406 C 129.050781 303.28125 127.539062 302.933594 126.824219 301.792969 C 126.105469 300.652344 126.453125 299.144531 127.59375 298.425781 C 127.59375 298.425781 130.921875 296.328125 136.40625 294.425781 C 134.9375 293.433594 133.585938 292.332031 132.355469 291.125 C 130.292969 291.355469 125.710938 292.175781 122.980469 294.976562 C 122.035156 295.945312 120.492188 295.96875 119.523438 295.023438 C 118.558594 294.082031 118.539062 292.53125 119.480469 291.570312 C 122.078125 288.914062 125.894531 287.546875 128.851562 286.851562 C 128.382812 286.140625 127.945312 285.402344 127.539062 284.628906 C 122.007812 284.867188 117.863281 283.617188 114.75 281.753906 C 109.925781 278.878906 107.539062 274.472656 106.375 271.324219 Z M 128.789062 279.652344 C 131.113281 279.433594 132.4375 278.550781 132.355469 277.363281 C 132.28125 276.359375 131.09375 275.894531 129.425781 276.179688 C 126.351562 276.699219 122.992188 276.597656 119.851562 274.746094 C 116.878906 273 114.003906 269.625 111.960938 263.253906 C 111.894531 263.027344 111.832031 262.828125 111.667969 262.769531 C 111.546875 262.71875 111.410156 262.78125 111.28125 262.851562 C 110.332031 263.355469 109.878906 264.78125 110.195312 266.824219 C 110.195312 266.832031 110.195312 266.832031 110.195312 266.832031 C 110.199219 266.851562 110.199219 266.878906 110.207031 266.898438 C 110.207031 266.898438 111.101562 273.894531 117.25 277.5625 C 119.972656 279.1875 123.710938 280.121094 128.789062 279.652344 Z M 121.195312 133.335938 L 65.371094 123.324219 C 64.492188 123.167969 63.765625 122.539062 63.488281 121.683594 C 63.207031 120.832031 63.414062 119.894531 64.027344 119.246094 L 154.183594 23.40625 C 154.894531 22.644531 156 22.421875 156.949219 22.84375 L 272.074219 73.652344 C 272.824219 73.980469 273.355469 74.660156 273.492188 75.46875 C 273.636719 76.273438 273.363281 77.09375 272.769531 77.660156 L 265.550781 84.503906 L 268.582031 109.132812 C 273.214844 109.679688 276.984375 113.425781 277.378906 118.257812 C 277.625 121.226562 276.546875 124 274.632812 126 L 279.898438 134.066406 C 280.371094 134.792969 280.425781 135.707031 280.050781 136.476562 C 279.667969 137.25 278.910156 137.769531 278.054688 137.835938 L 259.964844 139.332031 C 259.101562 139.410156 258.269531 139.019531 257.773438 138.316406 C 257.273438 137.617188 257.175781 136.703125 257.527344 135.917969 C 257.527344 135.917969 261.398438 127.09375 261.398438 127.09375 C 259.179688 125.441406 257.664062 122.875 257.417969 119.902344 C 257.039062 115.394531 259.726562 111.332031 263.734375 109.753906 L 261.144531 88.691406 L 244.664062 104.332031 C 245.609375 104.652344 246.269531 105.53125 246.304688 106.550781 L 246.84375 121.410156 C 246.871094 122.164062 246.558594 122.878906 245.984375 123.363281 C 245.410156 123.851562 244.652344 124.046875 243.914062 123.898438 L 240.269531 123.152344 L 242.445312 143.839844 C 246.257812 146.96875 251.589844 151.003906 256.550781 153.558594 C 259.582031 155.117188 262.402344 156.222656 264.511719 155.75 C 267.046875 155.183594 269.988281 152.40625 272.941406 149.222656 C 277.214844 144.613281 281.304688 138.984375 283.75 135.953125 C 283.210938 135.199219 282.679688 134.421875 282.152344 133.628906 C 280.070312 130.515625 280.808594 126.324219 283.824219 124.101562 C 283.894531 124.054688 283.960938 124 284.03125 123.964844 C 285.617188 122.875 287.5 122.523438 289.269531 122.851562 C 290.101562 120.296875 291.597656 116.527344 293.832031 113.84375 C 293.386719 111.515625 292.59375 106.398438 293.050781 101.214844 C 293.503906 96.113281 295.210938 91.003906 299.164062 87.960938 C 301.679688 86.011719 303.824219 85.546875 305.550781 85.789062 C 308.207031 86.148438 310.230469 88.300781 311.464844 91.113281 C 312.148438 92.664062 312.605469 94.394531 312.90625 95.867188 C 313.234375 95.753906 313.566406 95.644531 313.921875 95.546875 C 316.675781 94.816406 320.179688 94.863281 323.21875 97.792969 C 324.84375 99.359375 326.128906 102.1875 326.945312 105.675781 C 328.277344 111.386719 328.546875 118.972656 328.273438 124.476562 C 328.441406 125.046875 328.394531 125.640625 328.167969 126.164062 C 328.113281 126.882812 328.046875 127.550781 327.972656 128.152344 C 327.652344 130.863281 325.699219 133.546875 322.917969 135.835938 C 319.394531 138.730469 314.59375 141.082031 311.59375 142.394531 C 311.675781 142.625 311.746094 142.855469 311.800781 143.097656 C 312.269531 145.078125 311.847656 147.167969 310.652344 148.8125 C 310.570312 148.929688 310.480469 149.03125 310.394531 149.128906 C 308.515625 151.539062 305.265625 152.453125 302.386719 151.347656 C 301.597656 151.039062 300.832031 150.710938 300.085938 150.363281 C 297.285156 155.183594 291.023438 163.460938 283.929688 170.019531 C 278.636719 174.910156 272.859375 178.800781 267.707031 179.886719 C 264.738281 180.515625 260.859375 179.914062 256.617188 178.449219 C 251.644531 176.71875 246.105469 173.832031 241.074219 170.832031 C 238.910156 174.957031 235.597656 178.90625 231.328125 182.476562 L 211.722656 202.417969 C 212.839844 203.609375 213.785156 205.035156 214.488281 206.742188 C 216.308594 211.183594 214.261719 217.515625 209.433594 222.957031 C 203.007812 230.203125 191.957031 235.84375 181.4375 233.222656 C 181.4375 233.222656 169.601562 245.261719 169.601562 245.261719 C 169.097656 245.78125 168.386719 246.042969 167.65625 245.988281 C 163.066406 245.597656 160.152344 246.117188 158.429688 247.613281 C 157.332031 248.5625 156.847656 249.90625 156.65625 251.449219 C 156.402344 253.417969 156.628906 255.679688 157.011719 258.0625 C 157.179688 259.101562 156.667969 260.125 155.746094 260.617188 C 154.816406 261.109375 153.683594 260.949219 152.925781 260.234375 L 104.382812 214.277344 C 103.765625 213.6875 103.5 212.828125 103.671875 211.996094 C 104.390625 208.59375 105.496094 205.5 107.210938 202.925781 C 100.128906 200.910156 93.84375 198.382812 89.417969 195.296875 C 85.484375 192.558594 82.964844 189.328125 82.226562 185.722656 C 81.742188 183.351562 82.160156 180.558594 83.414062 177.503906 C 85.046875 173.507812 88.140625 168.960938 92.054688 164.277344 C 100.550781 154.097656 112.980469 143.164062 121.925781 135.773438 Z M 238.949219 103.019531 L 266.746094 76.640625 C 266.746094 76.640625 156.550781 28.007812 156.550781 28.007812 C 156.550781 28.007812 70.671875 119.308594 70.671875 119.308594 L 119.640625 128.089844 L 118.199219 123.222656 C 118.191406 123.203125 118.183594 123.179688 118.179688 123.152344 C 117.871094 122.121094 117.632812 121.0625 117.472656 119.984375 C 116.257812 111.78125 119.535156 103.476562 126.285156 96.1875 C 135.867188 85.835938 152.550781 77.484375 172.34375 74.539062 C 192.132812 71.601562 210.527344 74.75 222.703125 81.875 C 231.273438 86.886719 236.824219 93.882812 238.042969 102.082031 C 238.046875 102.117188 238.054688 102.144531 238.054688 102.171875 C 238.089844 102.398438 238.117188 102.617188 238.144531 102.835938 Z M 266.71875 113.996094 C 264.027344 114.351562 262.0625 116.765625 262.285156 119.5 C 262.449219 121.488281 263.71875 123.113281 265.441406 123.824219 C 266.050781 124.074219 266.527344 124.558594 266.773438 125.167969 C 267.019531 125.777344 267.003906 126.460938 266.746094 127.058594 C 266.746094 127.058594 263.644531 134.128906 263.644531 134.128906 L 273.566406 133.308594 L 269.347656 126.847656 C 268.992188 126.296875 268.871094 125.625 269.011719 124.984375 C 269.148438 124.339844 269.546875 123.789062 270.105469 123.441406 C 271.683594 122.449219 272.671875 120.640625 272.507812 118.660156 C 272.277344 115.839844 269.796875 113.734375 266.976562 113.96875 C 266.902344 113.972656 266.820312 113.980469 266.753906 113.988281 C 266.738281 113.996094 266.730469 113.996094 266.71875 113.996094 Z M 238.027344 117.710938 C 240.191406 118.152344 241.851562 118.488281 241.851562 118.488281 C 241.851562 118.488281 241.496094 108.605469 241.496094 108.605469 L 235.390625 107.21875 C 235.355469 107.210938 235.328125 107.207031 235.296875 107.199219 L 228.160156 105.582031 L 228.160156 115.703125 C 228.160156 115.703125 233.972656 116.882812 238.027344 117.710938 Z M 237.554688 144.050781 L 235.25 122.128906 L 225.230469 120.085938 C 224.09375 119.855469 223.277344 118.859375 223.277344 117.695312 L 223.277344 108.046875 C 221.847656 106.96875 220.304688 106.550781 218.695312 106.558594 L 218.695312 111.351562 C 218.695312 112.867188 218.050781 114.316406 216.925781 115.332031 C 215.796875 116.351562 214.296875 116.84375 212.785156 116.6875 L 188.582031 114.191406 C 186.453125 113.972656 184.664062 112.519531 184.011719 110.476562 L 181.507812 102.542969 C 174.105469 105.171875 151.511719 113.332031 143.910156 117.554688 C 142.320312 118.433594 141.460938 119.957031 140.945312 121.625 C 140.542969 122.960938 140.367188 124.394531 140.320312 125.777344 C 143.085938 126.519531 145.808594 128.390625 147.550781 130.578125 C 150.199219 133.890625 150.554688 137.761719 147.621094 140.28125 C 147.605469 140.289062 147.59375 140.304688 147.578125 140.316406 C 147.578125 140.316406 140.242188 146.339844 132.355469 153.738281 L 134.59375 161.261719 C 135.832031 158.101562 137.738281 155.019531 140.242188 152.097656 C 147.933594 143.144531 161.347656 135.660156 177.582031 132.175781 L 178.699219 131.042969 C 179.601562 130.132812 181.050781 130.070312 182.019531 130.90625 L 182.441406 131.265625 C 182.792969 131.210938 183.132812 131.15625 183.480469 131.101562 C 203.15625 128.1875 221.308594 131.839844 232.359375 139.570312 C 234.320312 140.9375 236.0625 142.441406 237.554688 144.050781 Z M 286.824219 139.921875 C 283.792969 143.757812 278.773438 150.589844 273.890625 155.21875 C 270.988281 157.984375 268.058594 159.964844 265.578125 160.519531 C 263.28125 161.03125 260.351562 160.53125 257.191406 159.234375 C 252.644531 157.378906 247.480469 153.90625 243.164062 150.628906 L 243.832031 156.945312 C 243.859375 157.199219 243.886719 157.453125 243.90625 157.699219 C 243.914062 157.710938 243.914062 157.734375 243.914062 157.746094 C 244.160156 160.601562 243.824219 163.460938 242.964844 166.269531 C 247.867188 169.226562 253.324219 172.136719 258.222656 173.832031 C 261.472656 174.957031 264.421875 175.585938 266.699219 175.109375 C 271.152344 174.171875 276.039062 170.65625 280.609375 166.433594 C 287.273438 160.273438 293.183594 152.515625 295.8125 148 C 292.425781 145.800781 289.5 143.089844 286.824219 139.921875 Z M 293.539062 125.480469 C 293.542969 125.488281 293.558594 125.507812 293.558594 125.507812 C 297.765625 131.074219 302.523438 135.554688 308.214844 138.484375 L 308.222656 138.492188 C 308.226562 138.5 308.242188 138.507812 308.253906 138.507812 C 310.160156 137.734375 314.148438 135.988281 317.625 133.671875 C 319.113281 132.679688 320.507812 131.589844 321.566406 130.40625 C 321.8125 130.132812 322.035156 129.859375 322.242188 129.582031 C 318.964844 130.644531 316.285156 130.503906 314.046875 129.613281 C 312.003906 128.808594 310.269531 127.339844 308.773438 125.367188 C 306.839844 122.824219 305.285156 119.375 303.773438 115.621094 C 300.121094 106.503906 305.699219 100.613281 308.40625 98.421875 C 308.214844 97.078125 307.804688 94.925781 307 93.082031 C 306.675781 92.363281 306.308594 91.695312 305.832031 91.191406 C 305.558594 90.910156 305.265625 90.679688 304.886719 90.628906 C 304.125 90.519531 303.261719 90.964844 302.148438 91.824219 C 299.246094 94.058594 298.25 97.910156 297.921875 101.644531 C 297.367188 107.882812 298.851562 113.996094 298.851562 113.996094 C 299.054688 114.835938 298.804688 115.722656 298.175781 116.324219 C 295.59375 118.816406 294.125 123.308594 293.539062 125.480469 Z M 306.355469 143.089844 C 306.242188 142.988281 306.109375 142.90625 305.96875 142.828125 C 299.65625 139.570312 294.335938 134.640625 289.664062 128.453125 C 288.96875 127.539062 287.664062 127.355469 286.742188 128.03125 C 286.703125 128.058594 286.667969 128.085938 286.632812 128.105469 C 285.792969 128.789062 285.601562 130.003906 286.210938 130.917969 L 286.214844 130.917969 C 287.050781 132.175781 287.902344 133.382812 288.769531 134.53125 C 288.804688 134.574219 288.832031 134.613281 288.867188 134.65625 C 293.003906 140.089844 297.667969 144.277344 304.144531 146.785156 C 305.023438 147.125 306.027344 146.832031 306.582031 146.066406 C 306.644531 145.984375 306.703125 145.910156 306.765625 145.84375 C 307.074219 145.363281 307.175781 144.777344 307.046875 144.214844 C 306.945312 143.78125 306.703125 143.398438 306.375 143.101562 C 306.371094 143.101562 306.363281 143.097656 306.355469 143.089844 Z M 323.417969 123.789062 C 323.601562 119.644531 323.464844 114.328125 322.746094 109.707031 C 322.179688 106.042969 321.382812 102.808594 319.832031 101.3125 C 318.316406 99.855469 316.554688 99.90625 315.179688 100.265625 C 313.59375 100.691406 312.441406 101.523438 312.441406 101.523438 C 312.378906 101.570312 312.320312 101.613281 312.25 101.652344 C 312.25 101.652344 305.15625 105.929688 308.308594 113.804688 C 309.429688 116.597656 310.554688 119.207031 311.894531 121.308594 C 313.007812 123.050781 314.238281 124.429688 315.847656 125.074219 C 317.824219 125.851562 320.226562 125.460938 323.417969 123.789062 Z M 232.777344 174.273438 C 234.96875 171.773438 236.648438 169.136719 237.734375 166.421875 C 238.804688 163.730469 239.285156 160.96875 239.050781 158.210938 C 239.050781 158.195312 239.050781 158.183594 239.046875 158.164062 L 238.984375 157.554688 C 238.964844 157.425781 238.949219 157.296875 238.929688 157.171875 C 238.128906 151.777344 234.707031 147.171875 229.558594 143.574219 C 219.921875 136.828125 204.414062 133.617188 187.421875 135.515625 Z M 207.785156 199.457031 L 227.90625 178.988281 C 227.921875 178.972656 227.933594 178.960938 227.949219 178.945312 L 229.21875 177.65625 C 229.21875 177.65625 180.570312 136.097656 180.570312 136.097656 L 138.542969 178.570312 C 138.523438 178.589844 138.503906 178.605469 138.480469 178.625 L 135.785156 181.351562 C 141.992188 181.863281 148.4375 182.136719 153.808594 182.304688 C 153.894531 181.542969 154.160156 180.789062 154.605469 180.121094 C 155.519531 178.746094 157.066406 177.921875 158.71875 177.921875 C 161.109375 177.921875 164.011719 177.921875 165.886719 177.929688 C 168.21875 177.929688 170.226562 179.554688 170.714844 181.828125 C 170.714844 181.828125 170.714844 181.835938 170.714844 181.835938 C 171.042969 183.390625 171.277344 184.921875 171.425781 186.429688 C 172.75 186.34375 174.355469 186.207031 176.085938 186 C 180.714844 185.453125 190.578125 181.4375 194.3125 180.105469 C 197.460938 178.980469 201.183594 180.050781 203.792969 182.300781 C 206.25 184.417969 207.617188 187.484375 207.007812 190.351562 C 206.597656 192.269531 205.335938 194.222656 202.636719 195.742188 C 202.628906 195.742188 202.628906 195.746094 202.625 195.746094 C 202.625 195.746094 199.972656 197.222656 199.972656 197.222656 C 202.582031 197.523438 205.34375 198.179688 207.785156 199.457031 Z M 181.480469 228.15625 C 190.542969 231.113281 200.207031 225.996094 205.777344 219.71875 C 207.601562 217.664062 208.988281 215.472656 209.734375 213.367188 C 210.339844 211.632812 210.53125 209.980469 209.964844 208.59375 C 209.234375 206.816406 208.101562 205.5 206.75 204.53125 C 200.628906 200.160156 190.578125 202.3125 190.578125 202.3125 C 189.394531 202.542969 188.21875 201.886719 187.804688 200.761719 C 187.386719 199.625 187.859375 198.363281 188.910156 197.777344 L 200.246094 191.480469 C 201.378906 190.84375 202.058594 190.148438 202.226562 189.335938 C 202.488281 188.113281 201.652344 186.910156 200.601562 186 C 199.3125 184.886719 197.515625 184.148438 195.957031 184.703125 C 192.003906 186.117188 181.546875 190.277344 176.660156 190.855469 C 174.773438 191.074219 173.03125 191.21875 171.613281 191.316406 C 171.421875 198.765625 169.085938 205.683594 165.089844 212.1875 C 165.089844 212.1875 165.089844 212.191406 165.089844 212.191406 C 164.992188 212.34375 164.898438 212.488281 164.789062 212.625 C 166.15625 217.445312 170.136719 224.261719 181.226562 228.074219 C 181.308594 228.101562 181.390625 228.128906 181.472656 228.15625 C 181.472656 228.15625 181.472656 228.15625 181.480469 228.15625 Z M 161.222656 241.308594 L 116.847656 205.28125 C 115.324219 204.960938 113.820312 204.625 112.332031 204.269531 C 110.542969 206.246094 109.476562 208.8125 108.761719 211.6875 C 108.761719 211.6875 151.730469 252.371094 151.730469 252.371094 C 151.894531 248.890625 152.898438 245.933594 155.226562 243.917969 C 156.632812 242.703125 158.574219 241.765625 161.222656 241.308594 Z M 126.84375 207.105469 L 167.675781 240.25 L 176.363281 231.417969 C 165.921875 226.851562 161.84375 219.773438 160.238281 214.496094 C 158.375 214.308594 155.28125 214.003906 152.652344 213.730469 C 150.855469 213.550781 149.300781 212.40625 148.597656 210.738281 C 148.4375 210.363281 148.328125 209.972656 148.269531 209.578125 C 142.109375 209.121094 134.570312 208.328125 126.84375 207.105469 Z M 126.15625 138.601562 C 117.332031 145.835938 104.476562 157.023438 95.804688 167.402344 C 92.261719 171.652344 89.410156 175.742188 87.9375 179.355469 C 87.109375 181.363281 86.695312 183.179688 87.015625 184.746094 C 87.527344 187.257812 89.464844 189.375 92.210938 191.289062 C 97.019531 194.640625 104.230469 197.207031 112.1875 199.203125 C 112.1875 199.203125 112.1875 199.203125 112.195312 199.203125 C 114.222656 199.714844 116.3125 200.1875 118.417969 200.617188 C 118.417969 200.617188 118.421875 200.617188 118.421875 200.617188 C 129.589844 202.925781 141.398438 204.210938 150.03125 204.804688 C 154.375 199.054688 156.339844 192.953125 154.976562 187.230469 C 147.804688 187.011719 138.421875 186.628906 130.15625 185.726562 C 130.15625 185.726562 130.15625 185.726562 130.15625 185.722656 C 123.175781 184.957031 116.976562 183.78125 113.390625 182.09375 C 111.265625 181.089844 109.914062 179.8125 109.320312 178.503906 C 108.800781 177.355469 108.710938 175.898438 109.195312 174.191406 C 109.953125 171.535156 112.304688 167.9375 115.570312 164.050781 C 118.996094 159.964844 123.4375 155.480469 127.808594 151.328125 C 127.875 151.257812 127.945312 151.191406 128.019531 151.128906 C 136.140625 143.4375 143.945312 136.976562 144.457031 136.554688 C 144.800781 136.246094 144.828125 135.828125 144.71875 135.40625 C 144.558594 134.8125 144.199219 134.203125 143.734375 133.628906 C 142.710938 132.339844 141.164062 131.210938 139.554688 130.644531 C 139.042969 130.46875 138.515625 130.339844 138.011719 130.304688 C 138.003906 130.304688 138.003906 130.304688 137.996094 130.304688 C 137.875 130.3125 137.75 130.304688 137.636719 130.289062 C 137.046875 130.304688 136.480469 130.460938 135.988281 130.824219 C 135.8125 130.960938 131.917969 133.890625 126.378906 138.417969 C 126.3125 138.484375 126.238281 138.546875 126.15625 138.601562 Z M 125.464844 130.535156 L 126.023438 132.429688 C 130.285156 129.007812 133.066406 126.910156 133.066406 126.910156 C 133.066406 126.910156 133.066406 126.910156 133.074219 126.902344 C 133.808594 126.355469 134.601562 125.972656 135.441406 125.726562 C 135.625 121.007812 137.101562 115.75 141.535156 113.285156 C 149.355469 108.941406 172.695312 100.492188 180.03125 97.875 L 179.566406 96.40625 C 179 94.613281 179.417969 92.660156 180.660156 91.246094 C 181.894531 89.832031 183.789062 89.175781 185.640625 89.515625 L 214.296875 94.734375 C 216.84375 95.199219 218.695312 97.417969 218.695312 100.015625 L 218.695312 101.660156 C 220.269531 101.640625 221.800781 101.886719 223.277344 102.464844 C 223.296875 101.742188 223.632812 101.066406 224.191406 100.613281 C 224.773438 100.152344 225.53125 99.980469 226.261719 100.144531 L 233.007812 101.671875 C 231.648438 95.328125 226.984375 90.035156 220.238281 86.089844 C 208.832031 79.421875 191.59375 76.621094 173.058594 79.375 C 154.523438 82.125 138.84375 89.808594 129.871094 99.507812 C 124.242188 105.585938 121.292969 112.429688 122.308594 119.265625 C 122.433594 120.105469 122.609375 120.933594 122.855469 121.765625 L 125.445312 130.476562 C 125.449219 130.496094 125.457031 130.515625 125.464844 130.535156 Z M 185.40625 98.667969 L 188.679688 109.003906 C 188.734375 109.1875 188.890625 109.316406 189.082031 109.335938 L 213.285156 111.824219 C 213.414062 111.84375 213.550781 111.796875 213.652344 111.707031 C 213.75 111.617188 213.8125 111.488281 213.8125 111.351562 L 213.8125 104.398438 C 213.8125 104.371094 213.8125 104.34375 213.8125 104.316406 L 213.8125 100.015625 C 213.8125 99.78125 213.640625 99.582031 213.414062 99.542969 L 184.765625 94.324219 C 184.601562 94.289062 184.429688 94.351562 184.320312 94.476562 C 184.210938 94.597656 184.175781 94.777344 184.226562 94.933594 C 184.226562 94.933594 185.40625 98.660156 185.40625 98.667969 Z M 133.726562 175.503906 L 128.394531 157.542969 C 125.097656 160.765625 121.90625 164.097656 119.3125 167.191406 C 116.941406 170.011719 115.070312 172.609375 114.1875 174.710938 C 114.003906 175.148438 113.875 175.542969 113.800781 175.921875 C 113.757812 176.140625 113.703125 176.335938 113.773438 176.492188 C 113.882812 176.738281 114.15625 176.910156 114.46875 177.121094 C 115.097656 177.53125 115.902344 177.902344 116.867188 178.242188 C 120 179.355469 124.507812 180.148438 129.519531 180.734375 L 133.953125 176.253906 C 133.878906 176.023438 133.804688 175.785156 133.742188 175.539062 Z M 170.820312 139.003906 C 159.277344 142.652344 149.804688 148.464844 143.953125 155.28125 C 139.453125 160.527344 137.136719 166.339844 137.996094 172.15625 C 137.996094 172.15625 137.996094 172.164062 138.003906 172.171875 Z M 160.921875 209.640625 C 160.921875 209.632812 160.929688 209.625 160.9375 209.625 C 165.902344 201.523438 168.003906 192.707031 165.9375 182.84375 C 165.929688 182.824219 165.910156 182.8125 165.886719 182.8125 C 164.003906 182.804688 161.101562 182.804688 158.71875 182.804688 C 158.695312 182.804688 158.683594 182.820312 158.675781 182.832031 C 158.664062 182.84375 158.664062 182.867188 158.667969 182.871094 C 158.828125 183.25 158.96875 183.625 159.101562 184 C 159.113281 184.019531 159.121094 184.046875 159.128906 184.066406 C 161.921875 192.03125 159.578125 200.765625 153.101562 208.804688 C 153.097656 208.820312 153.097656 208.832031 153.097656 208.839844 C 153.101562 208.851562 153.117188 208.867188 153.128906 208.867188 C 153.136719 208.867188 153.136719 208.867188 153.144531 208.867188 C 155.855469 209.148438 159.046875 209.460938 160.882812 209.644531 C 160.894531 209.644531 160.902344 209.644531 160.910156 209.644531 C 160.910156 209.640625 160.917969 209.640625 160.921875 209.640625 Z M 286.46875 128.207031 C 286.085938 128.414062 285.648438 128.523438 285.210938 128.5 C 285.730469 128.523438 286.121094 128.40625 286.46875 128.207031 Z M 222.183594 277.609375 C 220.75 277.757812 219.480469 277.511719 218.378906 277.023438 C 215.660156 275.8125 213.96875 272.949219 213.648438 270.320312 C 213.367188 268.011719 214.152344 265.964844 215.613281 264.886719 C 216.515625 264.214844 217.695312 262.734375 218.992188 260.929688 C 222.328125 256.308594 226.15625 249.585938 227.175781 246.800781 C 227.878906 244.886719 229.035156 243.734375 230.308594 243.105469 C 231.65625 242.449219 233.1875 242.359375 234.695312 242.8125 C 237.179688 243.5625 239.644531 245.945312 240.457031 249.183594 C 240.539062 249.128906 240.621094 249.074219 240.710938 249.011719 C 240.828125 248.917969 240.957031 248.84375 241.082031 248.773438 C 242.964844 247.550781 245.273438 246.183594 247.8125 244.988281 C 247.929688 244.921875 248.054688 244.859375 248.175781 244.820312 C 249.132812 244.375 250.109375 243.964844 251.113281 243.589844 C 248.730469 238.796875 245.691406 228.640625 254.964844 218.082031 C 260.3125 211.996094 267.578125 210.683594 274.410156 211.414062 C 281.191406 212.136719 287.480469 214.890625 290.621094 216.46875 C 290.710938 216.511719 290.792969 216.550781 290.875 216.597656 C 292.054688 217.191406 292.726562 217.59375 292.726562 217.59375 C 292.746094 217.609375 292.765625 217.621094 292.785156 217.636719 C 292.785156 217.636719 295.382812 219.152344 296.625 223.332031 C 297.65625 226.816406 297.820312 232.492188 293.679688 241.144531 C 288.894531 251.152344 262.238281 295.953125 262.238281 295.953125 C 262.210938 296 262.183594 296.042969 262.15625 296.089844 C 257.800781 302.433594 249.390625 301.699219 245.738281 298.847656 C 243.449219 297.074219 242.71875 294.636719 243.984375 292.265625 C 243.988281 292.253906 243.996094 292.238281 244.011719 292.226562 C 244.011719 292.226562 244.625 291.125 244.625 291.125 C 236.703125 291.617188 231.582031 289.644531 228.242188 287.046875 C 224.449219 284.097656 222.851562 280.238281 222.183594 277.609375 Z M 235.515625 253.246094 C 235.554688 253.125 235.589844 253.015625 235.625 252.90625 C 236.28125 250.652344 235.328125 248.699219 233.972656 247.816406 C 233.480469 247.496094 232.933594 247.265625 232.460938 247.488281 C 232.148438 247.648438 231.9375 248 231.765625 248.480469 C 230.664062 251.492188 226.5625 258.777344 222.960938 263.785156 C 221.316406 266.074219 219.730469 267.890625 218.570312 268.769531 C 218.550781 268.847656 218.476562 269.125 218.476562 269.304688 C 218.460938 269.699219 218.542969 270.128906 218.695312 270.554688 C 219.007812 271.460938 219.644531 272.363281 220.640625 272.664062 C 221.324219 272.863281 222.136719 272.753906 223.078125 272.328125 C 223.105469 272.316406 223.132812 272.300781 223.160156 272.289062 C 224.066406 271.859375 225.257812 270.382812 226.628906 268.566406 C 230.175781 263.867188 234.285156 256.695312 235.445312 253.445312 C 235.464844 253.375 235.492188 253.308594 235.515625 253.246094 Z M 248.59375 250.03125 C 247.644531 250.507812 246.75 251.007812 245.902344 251.503906 C 247.910156 254.027344 250.867188 258.207031 251.433594 261.546875 C 251.667969 262.871094 250.773438 264.132812 249.441406 264.367188 C 248.113281 264.589844 246.84375 263.695312 246.617188 262.363281 C 246.351562 260.800781 245.328125 259.023438 244.261719 257.425781 C 243.417969 256.171875 242.519531 255.023438 241.8125 254.164062 C 240.917969 254.796875 240.242188 255.316406 239.816406 255.652344 C 238.253906 259.496094 234.15625 266.703125 230.527344 271.503906 C 229.191406 273.285156 227.871094 274.734375 226.746094 275.683594 C 227.082031 277.445312 228.105469 280.75 231.238281 283.1875 C 234.386719 285.640625 239.53125 287.109375 247.847656 285.871094 C 256.816406 276.316406 281.410156 232.253906 286.570312 219.9375 C 283.503906 218.550781 278.847656 216.796875 273.890625 216.269531 C 268.554688 215.695312 262.820312 216.550781 258.640625 221.304688 C 248.621094 232.710938 256.707031 243.492188 256.707031 243.492188 C 257.199219 244.136719 257.339844 244.988281 257.074219 245.761719 C 256.816406 246.527344 256.1875 247.121094 255.402344 247.332031 C 254.738281 247.511719 254.082031 247.714844 253.433594 247.941406 C 254.707031 249.230469 256.214844 250.855469 257.5 252.53125 C 258.871094 254.328125 259.976562 256.183594 260.433594 257.78125 C 260.8125 259.074219 260.066406 260.433594 258.769531 260.800781 C 257.472656 261.175781 256.117188 260.433594 255.742188 259.132812 C 255.300781 257.597656 253.914062 255.773438 252.480469 254.101562 C 251.078125 252.460938 249.589844 250.980469 248.59375 250.03125 Z M 251.140625 289.492188 C 250.683594 290.3125 248.496094 294.207031 248.304688 294.546875 C 248.328125 294.574219 248.347656 294.613281 248.367188 294.640625 C 248.4375 294.730469 248.519531 294.8125 248.605469 294.886719 C 248.894531 295.140625 249.253906 295.351562 249.660156 295.53125 C 252.046875 296.582031 255.90625 296.480469 258.085938 293.386719 C 259.273438 291.378906 284.632812 248.738281 289.277344 239.042969 C 294.191406 228.753906 292.019531 224.027344 290.792969 222.425781 C 284.660156 236.351562 260.054688 280.183594 251.140625 289.492188 Z M 251.140625 289.492188 " fill-opacity="1" fill-rule="evenodd"/></g></svg>