<svg xmlns="http://www.w3.org/2000/svg" xmlns:xlink="http://www.w3.org/1999/xlink" width="500" zoomAndPan="magnify" viewBox="0 0 375 374.999991" height="500" preserveAspectRatio="xMidYMid meet" version="1.0"><defs><clipPath id="9d02634c69"><path d="M 194 16.535156 L 202 16.535156 L 202 29 L 194 29 Z M 194 16.535156 " clip-rule="nonzero"/></clipPath><clipPath id="9cddb293d1"><path d="M 13.75 333 L 64 333 L 64 365 L 13.75 365 Z M 13.75 333 " clip-rule="nonzero"/></clipPath></defs><path fill="#65c688" d="M 307.472656 344.609375 C 307.601562 351.480469 313 355.117188 313.738281 364.355469 L 320.257812 364.355469 L 319.441406 352.089844 C 319.441406 346.65625 316.503906 346.011719 316.203125 338.613281 C 316.191406 338.25 316.125 337.890625 316.011719 337.550781 C 315.878906 337.140625 315.671875 336.757812 315.390625 336.421875 C 314.617188 335.492188 313.292969 335.160156 312.289062 334.488281 C 311.402344 333.890625 310.792969 332.855469 310.511719 332.15625 C 310.488281 332.089844 310.476562 332.027344 310.476562 331.957031 C 310.46875 331.160156 310.355469 327.570312 308.019531 324.929688 C 306.671875 323.410156 304.53125 323.269531 302.511719 323.140625 C 301.894531 323.101562 301.273438 323.011719 300.753906 322.84375 C 300.460938 322.75 300.191406 322.484375 299.949219 322.292969 C 298.921875 321.484375 295.757812 319.6875 293.132812 319.136719 C 292.230469 318.949219 291.324219 319.261719 290.570312 319.789062 C 288.863281 320.988281 288.574219 323.078125 290.539062 323.773438 C 292.082031 324.316406 293.949219 324.726562 295.457031 325.09375 C 296.398438 325.324219 297.027344 326.179688 297.027344 327.152344 C 297.027344 327.796875 296.632812 331.546875 299.753906 334.003906 C 299.835938 334.070312 299.90625 334.148438 299.96875 334.234375 C 301.132812 335.882812 304.785156 336.210938 306.796875 340.097656 C 307.503906 341.464844 307.445312 343.066406 307.472656 344.609375 Z M 307.472656 344.609375 " fill-opacity="1" fill-rule="nonzero"/><path fill="#007d41" d="M 296.683594 322.847656 C 296.800781 322.65625 297.054688 322.597656 297.246094 322.71875 C 304.484375 327.285156 309.316406 335.351562 312.332031 343.414062 C 315.355469 351.476562 316.589844 359.601562 316.589844 364.355469 L 315.773438 364.355469 C 315.773438 359.707031 314.558594 351.679688 311.570312 343.699219 C 308.578125 335.714844 303.832031 327.839844 296.808594 323.410156 C 296.621094 323.289062 296.5625 323.039062 296.683594 322.847656 Z M 296.683594 322.847656 " fill-opacity="1" fill-rule="evenodd"/><path fill="#65c688" d="M 347.179688 356.011719 C 344.886719 367.558594 339.65625 360.496094 336.964844 364.355469 L 327.183594 364.355469 L 327.367188 361.902344 L 328.984375 358.679688 C 329.921875 356.8125 329.648438 354.464844 330.578125 352.59375 C 331.921875 349.886719 336.484375 349.042969 338.59375 347.59375 L 341.855469 345.414062 C 343.738281 344.152344 345.855469 343.144531 348.117188 343.292969 C 353.738281 343.65625 360.761719 347.25 361 355.34375 C 361.007812 355.601562 360.859375 355.84375 360.632812 355.957031 C 360.367188 356.089844 360.054688 356.035156 359.828125 355.847656 C 358.546875 354.8125 356.859375 354.542969 356.117188 354.542969 C 354.015625 354.542969 351.910156 353.433594 349.808594 353.339844 C 348.382812 353.277344 347.457031 354.605469 347.179688 356.011719 Z M 347.179688 356.011719 " fill-opacity="1" fill-rule="nonzero"/><path fill="#007d41" d="M 335.433594 355.109375 C 333.628906 357.328125 332.484375 360.347656 332.484375 364.355469 L 331.667969 364.355469 C 331.667969 360.183594 332.863281 356.972656 334.800781 354.589844 C 336.734375 352.214844 339.378906 350.695312 342.242188 349.859375 C 347.945312 348.191406 354.589844 349.222656 358.375 351.75 C 358.5625 351.875 358.613281 352.128906 358.488281 352.316406 C 358.363281 352.503906 358.109375 352.554688 357.921875 352.429688 C 354.359375 350.054688 347.96875 349.039062 342.472656 350.644531 C 339.734375 351.441406 337.238281 352.886719 335.433594 355.109375 Z M 335.433594 355.109375 " fill-opacity="1" fill-rule="evenodd"/><path fill="#007d41" d="M 319.441406 352.089844 C 319.441406 346.65625 316.503906 346.011719 316.207031 338.613281 C 316.191406 338.25 316.128906 337.890625 316.011719 337.550781 C 316.996094 331.242188 320.664062 328.789062 320.664062 324.699219 C 319.65625 321.328125 319.203125 318.308594 319.214844 315.832031 C 319.246094 310.839844 324.144531 307.511719 325.90625 302.839844 C 327.46875 298.703125 327.59375 294.511719 328.871094 291.332031 C 329.597656 289.519531 331.554688 288.722656 333.503906 288.722656 C 336.722656 288.722656 339.652344 290.949219 339.859375 294.171875 C 340.238281 300.121094 338.003906 301.578125 336.964844 302.625 C 333.355469 306.523438 333.566406 311.105469 334.171875 313.941406 C 334.546875 315.695312 335.148438 317.414062 335.222656 319.207031 C 335.507812 325.882812 331.21875 324.179688 330.851562 326.742188 L 330.851562 327.917969 C 330.851562 329.550781 331.40625 331.121094 332.085938 332.601562 C 334.714844 338.296875 332.246094 343.023438 330.28125 345.566406 C 329.199219 346.964844 328.332031 348.589844 328.199219 350.355469 L 327.367188 361.902344 L 327.183594 364.355469 L 320.257812 364.355469 Z M 319.441406 352.089844 " fill-opacity="1" fill-rule="nonzero"/><path fill="#65c688" d="M 333.929688 294.789062 C 334.078125 294.6875 334.148438 294.496094 334.089844 294.316406 C 334.019531 294.105469 333.789062 293.988281 333.574219 294.058594 C 333.464844 294.097656 333.394531 294.164062 333.359375 294.199219 C 333.316406 294.242188 333.28125 294.292969 333.246094 294.335938 C 333.183594 294.429688 333.113281 294.550781 333.042969 294.691406 C 332.898438 294.96875 332.722656 295.367188 332.519531 295.863281 C 332.113281 296.867188 331.589844 298.3125 330.992188 300.148438 C 329.796875 303.824219 328.296875 309.078125 326.824219 315.480469 C 323.886719 328.289062 321.070312 345.714844 321.070312 364.355469 L 321.886719 364.355469 C 321.886719 345.792969 324.691406 328.429688 327.621094 315.664062 C 329.085938 309.28125 330.582031 304.054688 331.769531 300.402344 C 332.363281 298.578125 332.878906 297.152344 333.273438 296.171875 C 333.472656 295.683594 333.640625 295.3125 333.769531 295.066406 C 333.832031 294.9375 333.882812 294.855469 333.917969 294.804688 C 333.921875 294.796875 333.925781 294.792969 333.929688 294.789062 Z M 333.929688 294.789062 " fill-opacity="1" fill-rule="evenodd"/><path fill="#ffffff" d="M 200.269531 279.847656 C 258.308594 279.40625 305.21875 232.117188 305.21875 173.847656 C 305.21875 115.304688 257.863281 67.84375 199.449219 67.84375 C 143.78125 67.84375 98.15625 110.941406 93.988281 165.660156 C 93.953125 166.132812 94.324219 166.535156 94.796875 166.535156 L 114.671875 166.535156 C 115.902344 166.535156 116.691406 167.847656 116.113281 168.9375 L 86.855469 224.234375 C 86.253906 225.371094 84.636719 225.398438 83.996094 224.285156 L 52.230469 168.988281 C 51.601562 167.898438 52.390625 166.535156 53.644531 166.535156 L 74.882812 166.535156 C 75.3125 166.535156 75.671875 166.195312 75.699219 165.761719 C 79.855469 100.894531 133.671875 49.566406 199.449219 49.566406 C 267.9375 49.566406 323.457031 105.210938 323.457031 173.847656 C 323.457031 242.210938 268.378906 297.683594 200.269531 298.125 C 199.816406 298.128906 199.449219 297.761719 199.449219 297.308594 L 199.449219 280.667969 C 199.449219 280.214844 199.816406 279.851562 200.269531 279.847656 Z M 200.269531 279.847656 " fill-opacity="1" fill-rule="nonzero"/><path fill="#2b4ea3" d="M 199.136719 76.859375 C 199.136719 77.746094 194.113281 78.464844 187.917969 78.464844 C 181.71875 78.464844 176.695312 77.746094 176.695312 76.859375 C 176.695312 75.972656 181.71875 75.253906 187.917969 75.253906 C 194.113281 75.253906 199.136719 75.972656 199.136719 76.859375 Z M 199.136719 76.859375 " fill-opacity="1" fill-rule="nonzero"/><path fill="#8eacf7" d="M 187.917969 78.464844 C 194.113281 78.464844 199.136719 77.746094 199.136719 76.859375 L 199.136719 93.261719 C 199.136719 93.53125 198.957031 93.769531 198.699219 93.84375 C 191.652344 95.859375 184.179688 95.859375 177.132812 93.84375 C 176.875 93.769531 176.695312 93.53125 176.695312 93.261719 L 176.695312 76.859375 C 176.695312 77.746094 181.71875 78.464844 187.917969 78.464844 Z M 187.917969 78.464844 " fill-opacity="1" fill-rule="nonzero"/><path fill="#ffffff" d="M 199.347656 81.53125 C 199.476562 81.71875 199.425781 81.972656 199.242188 82.101562 C 196.46875 84.003906 192.265625 84.996094 188.078125 85.515625 C 183.871094 86.039062 179.617188 86.097656 176.695312 86.097656 L 176.695312 85.28125 C 179.609375 85.28125 183.824219 85.222656 187.976562 84.703125 C 192.144531 84.183594 196.179688 83.210938 198.78125 81.425781 C 198.964844 81.296875 199.21875 81.347656 199.347656 81.53125 Z M 199.34375 87.167969 C 199.460938 87.363281 199.398438 87.613281 199.207031 87.730469 C 196.527344 89.347656 192.203125 90.335938 187.9375 90.925781 C 183.652344 91.519531 179.359375 91.71875 176.695312 91.71875 L 176.695312 90.898438 C 179.328125 90.898438 183.582031 90.703125 187.824219 90.117188 C 192.082031 89.527344 196.257812 88.554688 198.785156 87.03125 C 198.976562 86.914062 199.226562 86.976562 199.34375 87.167969 Z M 199.34375 87.167969 " fill-opacity="1" fill-rule="evenodd"/><path fill="#ffc600" d="M 188.160156 30.589844 C 176.652344 30.589844 167.324219 39.933594 167.324219 51.460938 C 167.324219 57.480469 169.867188 62.90625 173.9375 66.714844 C 175.65625 68.589844 178.46875 73.101562 179.625 75.609375 C 180.003906 76.429688 180.878906 77.148438 181.78125 77.148438 L 194.539062 77.148438 C 195.0625 77.148438 195.554688 76.898438 195.863281 76.472656 C 197.238281 74.566406 199.5625 71.339844 201.050781 69.039062 C 202.011719 67.558594 203.097656 66.121094 204.222656 64.757812 C 207.207031 61.148438 208.996094 56.515625 208.996094 51.460938 C 208.996094 39.933594 199.667969 30.589844 188.160156 30.589844 Z M 188.160156 30.589844 " fill-opacity="1" fill-rule="nonzero"/><path fill="#fe8d00" d="M 193.59375 54.785156 C 193.582031 54.78125 193.53125 54.769531 193.429688 54.875 C 193.15625 55.160156 192.839844 55.765625 192.550781 56.894531 C 192.296875 57.890625 192.074219 59.253906 191.90625 61.082031 C 193.648438 60.179688 194.171875 58.089844 194.234375 56.308594 C 194.246094 55.859375 194.082031 55.324219 193.851562 55.007812 C 193.734375 54.847656 193.636719 54.796875 193.59375 54.785156 Z M 191.828125 62.007812 C 194.371094 61.039062 194.980469 58.28125 195.046875 56.335938 C 195.070312 55.710938 194.855469 54.996094 194.507812 54.523438 C 194.335938 54.289062 194.09375 54.0625 193.78125 53.988281 C 193.433594 53.90625 193.101562 54.035156 192.839844 54.308594 C 192.414062 54.75 192.058594 55.527344 191.761719 56.691406 C 191.472656 57.8125 191.234375 59.34375 191.0625 61.382812 C 190.910156 61.40625 190.710938 61.433594 190.484375 61.457031 C 190.4375 61.460938 190.386719 61.464844 190.339844 61.46875 C 188.363281 61.660156 186.402344 61.847656 184.585938 61.378906 C 184.351562 59.742188 184.078125 58.515625 183.773438 57.617188 C 183.457031 56.6875 183.09375 56.058594 182.664062 55.714844 C 182.359375 55.472656 182.015625 55.398438 181.679688 55.511719 C 181.371094 55.617188 181.140625 55.859375 180.976562 56.109375 C 180.648438 56.617188 180.480469 57.359375 180.582031 57.992188 C 180.832031 59.535156 181.714844 61.273438 183.847656 62.011719 C 184.273438 65.257812 184.546875 70.09375 184.546875 77.148438 L 185.363281 77.148438 C 185.363281 70.320312 185.105469 65.539062 184.703125 62.246094 C 186.566406 62.65625 188.53125 62.464844 190.355469 62.289062 C 190.425781 62.28125 190.492188 62.277344 190.5625 62.269531 C 190.710938 62.253906 190.859375 62.238281 190.996094 62.21875 C 190.75 65.699219 190.6875 70.539062 190.921875 77.164062 L 191.738281 77.136719 C 191.5 70.351562 191.570312 65.46875 191.828125 62.007812 Z M 183.71875 61.078125 C 183.5 59.679688 183.257812 58.640625 183 57.882812 C 182.699219 56.992188 182.398438 56.546875 182.152344 56.355469 C 182.039062 56.261719 181.976562 56.273438 181.941406 56.285156 C 181.875 56.308594 181.773438 56.382812 181.660156 56.554688 C 181.441406 56.898438 181.320312 57.433594 181.386719 57.859375 C 181.589844 59.09375 182.230469 60.402344 183.71875 61.078125 Z M 183.71875 61.078125 " fill-opacity="1" fill-rule="evenodd"/><path fill="#fe8d00" d="M 219.15625 36.117188 L 217.367188 33.246094 C 216.792969 32.328125 215.496094 32.230469 214.789062 33.054688 L 210.492188 38.074219 C 209.425781 39.324219 210.695312 41.179688 212.242188 40.636719 L 218.332031 38.480469 C 219.300781 38.140625 219.703125 36.988281 219.15625 36.117188 Z M 219.15625 36.117188 " fill-opacity="1" fill-rule="nonzero"/><path fill="#fe8d00" d="M 174.292969 19.289062 L 170.292969 20.890625 C 169.25 21.308594 168.949219 22.648438 169.714844 23.476562 L 174.910156 29.078125 C 175.992188 30.246094 177.929688 29.292969 177.667969 27.722656 L 176.46875 20.515625 C 176.300781 19.507812 175.242188 18.910156 174.292969 19.289062 Z M 174.292969 19.289062 " fill-opacity="1" fill-rule="nonzero"/><g clip-path="url(#9d02634c69)"><path fill="#fe8d00" d="M 200.777344 18.628906 L 196.664062 16.976562 C 195.640625 16.570312 194.519531 17.289062 194.464844 18.394531 L 194.054688 27.050781 C 193.976562 28.6875 196.113281 29.375 197 28 L 201.53125 20.992188 C 202.078125 20.140625 201.714844 19.003906 200.777344 18.628906 Z M 200.777344 18.628906 " fill-opacity="1" fill-rule="nonzero"/></g><path fill="#fe8d00" d="M 157.101562 39.628906 L 154.71875 43.605469 C 154.125 44.601562 154.746094 45.878906 155.894531 46.023438 L 162.246094 46.820312 C 163.691406 47 164.605469 45.316406 163.675781 44.199219 L 159.707031 39.425781 C 159 38.578125 157.667969 38.679688 157.101562 39.628906 Z M 157.101562 39.628906 " fill-opacity="1" fill-rule="nonzero"/><path fill="#fe8d00" d="M 292.800781 70.90625 L 265.847656 111.023438 C 265.175781 112.027344 265.511719 113.394531 266.578125 113.960938 L 276.96875 119.527344 C 288.980469 125.960938 300.230469 133.734375 310.507812 142.703125 L 316.683594 148.09375 C 317.597656 148.890625 319 148.714844 319.6875 147.714844 L 346.613281 108.5625 C 347.277344 107.597656 346.996094 106.269531 345.996094 105.660156 L 324.359375 92.765625 C 321.3125 90.953125 318.402344 88.914062 315.652344 86.675781 L 295.75 70.457031 C 294.824219 69.710938 293.460938 69.917969 292.800781 70.90625 Z M 292.800781 70.90625 " fill-opacity="1" fill-rule="nonzero"/><path fill="#ffffff" d="M 293.894531 125.941406 L 271.535156 113.457031 L 269.535156 112.027344 C 269.179688 111.773438 269.085938 111.277344 269.332031 110.910156 L 294.410156 73.046875 C 294.683594 72.636719 295.25 72.558594 295.621094 72.878906 L 297.5625 74.542969 L 317.726562 91.066406 C 318.054688 91.335938 318.121094 91.8125 317.882812 92.164062 L 294.964844 125.6875 C 294.726562 126.035156 294.261719 126.144531 293.894531 125.941406 Z M 293.894531 125.941406 " fill-opacity="1" fill-rule="nonzero"/><path fill="#ffccba" d="M 271.535156 113.457031 L 297.5625 74.542969 L 295.621094 72.878906 C 295.25 72.558594 294.683594 72.636719 294.410156 73.046875 L 269.332031 110.910156 C 269.085938 111.277344 269.179688 111.773438 269.535156 112.027344 Z M 271.535156 113.457031 " fill-opacity="1" fill-rule="nonzero"/><path fill="#ffccba" d="M 312.777344 93.003906 L 298.445312 82.046875 L 298.941406 81.394531 L 313.273438 92.351562 Z M 310.144531 97.164062 L 296.1875 86.960938 L 296.671875 86.300781 L 310.625 96.503906 Z M 307.882812 101.320312 L 291.285156 89.230469 L 291.765625 88.570312 L 308.363281 100.660156 Z M 307.882812 101.320312 " fill-opacity="1" fill-rule="evenodd"/><path fill="#ffffff" d="M 315.085938 142.78125 L 296.242188 126.980469 C 295.921875 126.710938 295.855469 126.242188 296.09375 125.894531 L 318.742188 92.554688 C 318.984375 92.199219 319.460938 92.089844 319.832031 92.308594 L 321.082031 93.046875 L 323.589844 94.566406 L 341.648438 105.144531 L 343.996094 106.707031 C 344.386719 106.964844 344.480469 107.496094 344.203125 107.871094 L 317.691406 144.050781 C 317.394531 144.453125 316.808594 144.5 316.457031 144.148438 Z M 315.085938 142.78125 " fill-opacity="1" fill-rule="nonzero"/><path fill="#ffccba" d="M 335.441406 108.070312 L 320.355469 98.691406 L 320.785156 97.996094 L 335.871094 107.375 Z M 332.421875 111.539062 L 317.335938 102.089844 L 317.769531 101.398438 L 332.855469 110.84375 Z M 329.785156 115.316406 L 314.695312 105.871094 L 315.128906 105.175781 L 330.214844 114.621094 Z M 329.785156 115.316406 " fill-opacity="1" fill-rule="evenodd"/><path fill="#fe8d00" d="M 318.683594 101.746094 L 323.589844 94.566406 L 321.082031 93.046875 L 316.421875 100.058594 L 318.148438 100.058594 Z M 318.683594 101.746094 " fill-opacity="1" fill-rule="nonzero"/><path fill="#ffccba" d="M 315.085938 142.78125 L 341.648438 105.144531 L 344 106.707031 C 344.386719 106.964844 344.480469 107.496094 344.207031 107.871094 L 317.691406 144.050781 C 317.394531 144.453125 316.8125 144.5 316.457031 144.148438 Z M 315.085938 142.78125 " fill-opacity="1" fill-rule="nonzero"/><path fill="#ffc600" d="M 264.6875 265.015625 L 89.1875 265.015625 C 88.738281 265.015625 88.371094 265.382812 88.371094 265.835938 L 88.371094 267.0625 C 88.371094 267.511719 88.738281 267.878906 89.1875 267.878906 L 94.085938 267.878906 L 94.085938 302.628906 L 89.1875 302.628906 C 88.738281 302.628906 88.371094 302.992188 88.371094 303.445312 L 88.371094 305.082031 C 88.371094 305.53125 88.738281 305.898438 89.1875 305.898438 L 264.6875 305.898438 C 275.957031 305.898438 285.09375 296.746094 285.09375 285.457031 C 285.09375 274.167969 275.957031 265.015625 264.6875 265.015625 Z M 264.6875 265.015625 " fill-opacity="1" fill-rule="nonzero"/><path fill="#f99d23" d="M 207.957031 265.015625 L 212.039062 265.015625 C 221.144531 277.082031 221.203125 293.878906 212.039062 305.898438 L 207.957031 305.898438 C 217.3125 293.945312 217.253906 277.015625 207.957031 265.015625 Z M 207.957031 265.015625 " fill-opacity="1" fill-rule="nonzero"/><path fill="#f99d23" d="M 217.75 265.015625 L 221.832031 265.015625 C 230.9375 277.082031 231 293.878906 221.832031 305.898438 L 217.75 305.898438 C 227.109375 293.945312 227.046875 277.015625 217.75 265.015625 Z M 217.75 265.015625 " fill-opacity="1" fill-rule="nonzero"/><path fill="#f99d23" d="M 259.378906 265.015625 L 263.460938 265.015625 C 272.566406 277.082031 272.628906 293.878906 263.460938 305.898438 L 259.378906 305.898438 C 268.738281 293.945312 268.675781 277.015625 259.378906 265.015625 Z M 259.378906 265.015625 " fill-opacity="1" fill-rule="nonzero"/><path fill="#f99d23" d="M 89.1875 265.015625 L 179.792969 265.015625 C 191.066406 265.015625 200.199219 274.167969 200.199219 285.457031 C 200.199219 296.746094 191.066406 305.898438 179.792969 305.898438 L 89.1875 305.898438 C 88.738281 305.898438 88.371094 305.53125 88.371094 305.082031 L 88.371094 303.445312 C 88.371094 302.992188 88.738281 302.628906 89.1875 302.628906 L 94.085938 302.628906 L 94.085938 267.878906 L 89.1875 267.878906 C 88.738281 267.878906 88.371094 267.511719 88.371094 267.0625 L 88.371094 265.835938 C 88.371094 265.382812 88.738281 265.015625 89.1875 265.015625 Z M 89.1875 265.015625 " fill-opacity="1" fill-rule="nonzero"/><path fill="#ffffff" d="M 196.527344 285.253906 C 196.527344 275.65625 188.761719 267.878906 179.179688 267.878906 L 94.085938 267.878906 L 94.085938 302.628906 L 179.179688 302.628906 C 188.761719 302.628906 196.527344 294.847656 196.527344 285.253906 Z M 196.527344 285.253906 " fill-opacity="1" fill-rule="nonzero"/><path fill="#f4f4f4" d="M 94.085938 274.828125 L 177.753906 274.828125 C 178.203125 274.828125 178.566406 274.460938 178.566406 274.011719 C 178.566406 273.558594 178.203125 273.191406 177.753906 273.191406 L 94.085938 273.191406 Z M 94.085938 274.828125 " fill-opacity="1" fill-rule="nonzero"/><path fill="#f4f4f4" d="M 94.085938 282.1875 L 177.753906 282.1875 C 178.203125 282.1875 178.566406 281.820312 178.566406 281.371094 C 178.566406 280.917969 178.203125 280.550781 177.753906 280.550781 L 94.085938 280.550781 Z M 94.085938 282.1875 " fill-opacity="1" fill-rule="nonzero"/><path fill="#f4f4f4" d="M 94.085938 290.363281 L 177.753906 290.363281 C 178.203125 290.363281 178.566406 289.996094 178.566406 289.546875 C 178.566406 289.09375 178.203125 288.726562 177.753906 288.726562 L 94.085938 288.726562 Z M 94.085938 290.363281 " fill-opacity="1" fill-rule="nonzero"/><path fill="#f4f4f4" d="M 94.085938 297.722656 L 177.753906 297.722656 C 178.203125 297.722656 178.566406 297.355469 178.566406 296.90625 C 178.566406 296.453125 178.203125 296.085938 177.753906 296.085938 L 94.085938 296.085938 Z M 94.085938 297.722656 " fill-opacity="1" fill-rule="nonzero"/><path fill="#d5e3ff" d="M 285.910156 305.898438 L 80.207031 305.898438 C 79.757812 305.898438 79.394531 306.265625 79.394531 306.714844 L 79.394531 308.351562 C 79.394531 308.800781 79.757812 309.167969 80.207031 309.167969 L 81.433594 309.167969 L 81.433594 320.207031 L 80.207031 320.207031 C 79.757812 320.207031 79.394531 320.570312 79.394531 321.023438 L 79.394531 322.25 C 79.394531 322.703125 79.757812 323.066406 80.207031 323.066406 L 285.910156 323.066406 C 290.640625 323.066406 294.480469 319.226562 294.480469 314.484375 C 294.480469 309.742188 290.640625 305.898438 285.910156 305.898438 Z M 285.910156 305.898438 " fill-opacity="1" fill-rule="nonzero"/><path fill="#a1bafc" d="M 80.207031 305.898438 L 147.140625 305.898438 C 151.875 305.898438 155.710938 309.742188 155.710938 314.484375 C 155.710938 319.226562 151.875 323.066406 147.140625 323.066406 L 80.207031 323.066406 C 79.757812 323.066406 79.390625 322.703125 79.390625 322.25 L 79.390625 321.023438 C 79.390625 320.570312 79.757812 320.207031 80.207031 320.207031 L 81.433594 320.207031 L 81.433594 309.167969 L 80.207031 309.167969 C 79.757812 309.167969 79.390625 308.800781 79.390625 308.351562 L 79.390625 306.714844 C 79.390625 306.265625 79.757812 305.898438 80.207031 305.898438 Z M 80.207031 305.898438 " fill-opacity="1" fill-rule="nonzero"/><path fill="#ffffff" d="M 81.433594 309.167969 L 146.53125 309.167969 C 149.574219 309.167969 152.042969 311.640625 152.042969 314.6875 C 152.042969 317.734375 149.574219 320.207031 146.53125 320.207031 L 81.433594 320.207031 Z M 81.433594 309.167969 " fill-opacity="1" fill-rule="nonzero"/><path fill="#a1bafc" d="M 280.601562 310.804688 C 280.601562 310.351562 280.238281 309.984375 279.789062 309.984375 L 170.40625 309.984375 C 169.957031 309.984375 169.589844 310.351562 169.589844 310.804688 L 169.589844 317.34375 C 169.589844 317.796875 169.957031 318.164062 170.40625 318.164062 L 279.789062 318.164062 C 280.238281 318.164062 280.601562 317.796875 280.601562 317.34375 Z M 280.601562 310.804688 " fill-opacity="1" fill-rule="nonzero"/><path fill="#ffccba" d="M 108.777344 323.066406 L 284.277344 323.066406 C 284.726562 323.066406 285.09375 323.433594 285.09375 323.886719 L 285.09375 325.113281 C 285.09375 325.5625 284.726562 325.929688 284.277344 325.929688 L 279.378906 325.929688 L 279.378906 360.679688 L 284.277344 360.679688 C 284.726562 360.679688 285.09375 361.046875 285.09375 361.496094 L 285.09375 363.132812 C 285.09375 363.582031 284.726562 363.949219 284.277344 363.949219 L 108.777344 363.949219 C 97.507812 363.949219 88.371094 354.796875 88.371094 343.507812 C 88.371094 332.21875 97.507812 323.066406 108.777344 323.066406 Z M 108.777344 323.066406 " fill-opacity="1" fill-rule="nonzero"/><path fill="#fe8d00" d="M 165.507812 323.066406 L 161.425781 323.066406 C 152.320312 335.132812 152.261719 351.929688 161.425781 363.949219 L 165.507812 363.949219 C 156.152344 351.996094 156.210938 335.070312 165.507812 323.066406 Z M 165.507812 323.066406 " fill-opacity="1" fill-rule="nonzero"/><path fill="#fe8d00" d="M 155.714844 323.066406 L 151.632812 323.066406 C 142.527344 335.132812 142.464844 351.929688 151.632812 363.949219 L 155.714844 363.949219 C 146.355469 351.996094 146.417969 335.070312 155.714844 323.066406 Z M 155.714844 323.066406 " fill-opacity="1" fill-rule="nonzero"/><path fill="#fe8d00" d="M 114.085938 323.066406 L 110.003906 323.066406 C 100.898438 335.132812 100.835938 351.929688 110.003906 363.949219 L 114.085938 363.949219 C 104.730469 351.996094 104.789062 335.070312 114.085938 323.066406 Z M 114.085938 323.066406 " fill-opacity="1" fill-rule="nonzero"/><path fill="#fe8d00" d="M 284.277344 323.066406 L 193.671875 323.066406 C 182.398438 323.066406 173.265625 332.21875 173.265625 343.507812 C 173.265625 354.796875 182.398438 363.949219 193.671875 363.949219 L 284.277344 363.949219 C 284.726562 363.949219 285.09375 363.582031 285.09375 363.132812 L 285.09375 361.496094 C 285.09375 361.046875 284.726562 360.679688 284.277344 360.679688 L 279.378906 360.679688 L 279.378906 325.929688 L 284.277344 325.929688 C 284.726562 325.929688 285.09375 325.5625 285.09375 325.113281 L 285.09375 323.886719 C 285.09375 323.433594 284.726562 323.066406 284.277344 323.066406 Z M 284.277344 323.066406 " fill-opacity="1" fill-rule="nonzero"/><path fill="#ffffff" d="M 176.9375 343.304688 C 176.9375 333.707031 184.703125 325.929688 194.285156 325.929688 L 279.378906 325.929688 L 279.378906 360.679688 L 194.285156 360.679688 C 184.703125 360.679688 176.9375 352.902344 176.9375 343.304688 Z M 176.9375 343.304688 " fill-opacity="1" fill-rule="nonzero"/><path fill="#f4f4f4" d="M 279.378906 332.878906 L 195.710938 332.878906 C 195.261719 332.878906 194.898438 332.511719 194.898438 332.0625 C 194.898438 331.609375 195.261719 331.246094 195.710938 331.246094 L 279.378906 331.246094 Z M 279.378906 332.878906 " fill-opacity="1" fill-rule="nonzero"/><path fill="#f4f4f4" d="M 279.378906 340.238281 L 195.710938 340.238281 C 195.261719 340.238281 194.898438 339.871094 194.898438 339.421875 C 194.898438 338.96875 195.261719 338.605469 195.710938 338.605469 L 279.378906 338.605469 Z M 279.378906 340.238281 " fill-opacity="1" fill-rule="nonzero"/><path fill="#f4f4f4" d="M 279.378906 348.414062 L 195.710938 348.414062 C 195.261719 348.414062 194.898438 348.046875 194.898438 347.597656 C 194.898438 347.144531 195.261719 346.78125 195.710938 346.78125 L 279.378906 346.78125 Z M 279.378906 348.414062 " fill-opacity="1" fill-rule="nonzero"/><path fill="#f4f4f4" d="M 279.378906 355.773438 L 195.710938 355.773438 C 195.261719 355.773438 194.898438 355.40625 194.898438 354.957031 C 194.898438 354.503906 195.261719 354.136719 195.710938 354.136719 L 279.378906 354.136719 Z M 279.378906 355.773438 " fill-opacity="1" fill-rule="nonzero"/><path fill="#fe8d00" d="M 79.648438 91.371094 L 120.316406 114.058594 L 120.316406 115.402344 C 120.316406 115.816406 120.003906 116.164062 119.589844 116.214844 L 92.90625 119.277344 L 91.910156 130.714844 C 91.886719 130.988281 91.730469 131.230469 91.488281 131.355469 C 80.121094 137.195312 58.15625 132.691406 49.253906 122.195312 C 49.0625 121.96875 49.019531 121.65625 49.128906 121.382812 L 53.605469 110.222656 L 29.453125 93.792969 C 29.082031 93.542969 28.980469 93.039062 29.230469 92.664062 L 29.816406 91.785156 L 79.246094 91.269531 C 79.386719 91.265625 79.527344 91.304688 79.648438 91.371094 Z M 79.648438 91.371094 " fill-opacity="1" fill-rule="nonzero"/><path fill="#ffccba" d="M 71.453125 119.589844 L 29.816406 91.785156 L 79.246094 91.269531 C 79.386719 91.265625 79.527344 91.304688 79.648438 91.371094 L 120.316406 114.058594 L 72.003906 119.722656 C 71.808594 119.742188 71.617188 119.695312 71.453125 119.589844 Z M 71.453125 119.589844 " fill-opacity="1" fill-rule="nonzero"/><path fill="#ffccba" d="M 70.167969 121.488281 L 53.605469 110.222656 L 49.128906 121.382812 C 49.019531 121.65625 49.0625 121.96875 49.253906 122.195312 C 58.15625 132.691406 80.121094 137.195312 91.488281 131.355469 C 91.730469 131.230469 91.886719 130.988281 91.910156 130.714844 L 92.90625 119.277344 L 71.273438 121.757812 C 70.882812 121.804688 70.492188 121.707031 70.167969 121.488281 Z M 70.167969 121.488281 " fill-opacity="1" fill-rule="nonzero"/><path fill="#fe8d00" d="M 35.753906 122.539062 C 35.59375 122.960938 35.421875 123.398438 35.238281 123.871094 C 34.710938 125.222656 34.71875 126.71875 35.175781 128.097656 C 35.371094 128.683594 35.921875 129.082031 36.539062 129.082031 L 38.566406 129.082031 C 38.804688 129.082031 38.945312 128.8125 38.8125 128.613281 C 37.773438 127.050781 37.898438 124.988281 39.113281 123.554688 C 39.761719 122.789062 40.484375 121.9375 41.199219 121.082031 C 42.199219 119.894531 42.605469 118.398438 42.207031 116.894531 C 42.066406 116.371094 41.921875 115.847656 41.800781 115.417969 C 41.742188 115.210938 41.769531 114.988281 41.871094 114.800781 L 45.769531 107.699219 C 46.773438 105.871094 48.691406 104.734375 50.777344 104.734375 L 74.292969 104.734375 C 74.578125 104.734375 74.808594 104.503906 74.808594 104.222656 C 74.808594 103.933594 74.570312 103.703125 74.285156 103.707031 L 49.75 104.15625 C 47.664062 104.191406 45.761719 105.367188 44.792969 107.222656 L 40.746094 114.957031 C 40.699219 115.046875 40.636719 115.128906 40.5625 115.195312 L 39.484375 116.136719 C 37.613281 117.78125 36.621094 120.203125 35.753906 122.539062 Z M 35.753906 122.539062 " fill-opacity="1" fill-rule="nonzero"/><path fill="#fe8d00" d="M 78.425781 104.214844 C 78.425781 104.789062 77.265625 105.253906 75.839844 105.253906 C 74.410156 105.253906 73.253906 104.789062 73.253906 104.214844 C 73.253906 103.644531 74.410156 103.179688 75.839844 103.179688 C 77.265625 103.179688 78.425781 103.644531 78.425781 104.214844 Z M 78.425781 104.214844 " fill-opacity="1" fill-rule="nonzero"/><path fill="#65c688" d="M 51.949219 335.230469 C 52.136719 345.332031 60.066406 350.671875 61.152344 364.25 L 70.730469 364.25 L 69.535156 346.226562 C 69.535156 338.238281 65.214844 337.292969 64.777344 326.421875 C 64.757812 325.886719 64.664062 325.359375 64.496094 324.859375 C 64.296875 324.257812 63.992188 323.691406 63.585938 323.203125 C 62.449219 321.832031 60.5 321.347656 59.027344 320.355469 C 57.722656 319.480469 56.824219 317.957031 56.414062 316.929688 C 56.375 316.835938 56.359375 316.738281 56.359375 316.636719 C 56.351562 315.46875 56.179688 310.191406 52.746094 306.308594 C 50.773438 304.078125 47.625 303.867188 44.65625 303.679688 C 43.746094 303.621094 42.839844 303.492188 42.074219 303.246094 C 41.640625 303.105469 41.246094 302.71875 40.890625 302.4375 C 39.378906 301.246094 34.730469 298.605469 30.875 297.800781 C 29.546875 297.523438 28.21875 297.980469 27.109375 298.757812 C 24.597656 300.519531 24.171875 303.585938 27.0625 304.609375 C 29.324219 305.410156 32.070312 306.007812 34.285156 306.550781 C 35.671875 306.890625 36.597656 308.148438 36.597656 309.578125 C 36.597656 310.527344 36.015625 316.035156 40.601562 319.644531 C 40.722656 319.742188 40.828125 319.859375 40.917969 319.988281 C 42.628906 322.410156 47.996094 322.890625 50.953125 328.601562 C 51.992188 330.613281 51.90625 332.964844 51.949219 335.230469 Z M 51.949219 335.230469 " fill-opacity="1" fill-rule="nonzero"/><path fill="#007d41" d="M 36.25 303.351562 C 36.371094 303.160156 36.621094 303.101562 36.8125 303.222656 C 47.402344 309.902344 54.480469 321.710938 58.910156 333.539062 C 63.34375 345.371094 65.148438 357.285156 65.148438 364.25 L 64.332031 364.25 C 64.332031 357.394531 62.546875 345.574219 58.144531 333.828125 C 53.742188 322.074219 46.75 310.457031 36.378906 303.914062 C 36.1875 303.796875 36.128906 303.542969 36.25 303.351562 Z M 36.25 303.351562 " fill-opacity="1" fill-rule="evenodd"/><g clip-path="url(#9cddb293d1)"><path fill="#65c688" d="M 34.027344 350.679688 C 37.398438 362.171875 45.105469 358.554688 49.078125 364.25 L 63.449219 364.25 L 63.179688 360.644531 L 60.121094 354.542969 C 59.183594 352.675781 59.289062 350.472656 58.933594 348.410156 C 58.039062 343.253906 50.128906 341.988281 46.683594 339.617188 L 40.550781 335.515625 C 38.667969 334.253906 36.558594 333.273438 34.296875 333.25 C 25.832031 333.160156 14.128906 338.324219 13.753906 351.007812 C 13.742188 351.386719 13.957031 351.738281 14.296875 351.910156 C 14.683594 352.101562 15.144531 352.019531 15.480469 351.75 C 17.359375 350.226562 19.839844 349.828125 20.929688 349.828125 C 24.445312 349.828125 27.964844 347.714844 31.480469 348.097656 C 32.792969 348.242188 33.652344 349.410156 34.027344 350.679688 Z M 34.027344 350.679688 " fill-opacity="1" fill-rule="nonzero"/></g><path fill="#007d41" d="M 51.472656 350.539062 C 54.15625 353.835938 55.851562 358.324219 55.851562 364.25 L 56.667969 364.25 C 56.667969 358.15625 54.921875 353.484375 52.105469 350.023438 C 49.296875 346.566406 45.441406 344.347656 41.265625 343.128906 C 32.933594 340.695312 23.226562 342.203125 17.714844 345.882812 C 17.527344 346.011719 17.476562 346.265625 17.601562 346.453125 C 17.726562 346.640625 17.980469 346.691406 18.167969 346.566406 C 23.453125 343.035156 32.90625 341.539062 41.035156 343.914062 C 45.089844 345.097656 48.789062 347.234375 51.472656 350.539062 Z M 51.472656 350.539062 " fill-opacity="1" fill-rule="evenodd"/><path fill="#f7aa8c" d="M 185.167969 157.796875 C 184.433594 157.644531 183.746094 157.359375 183.109375 156.933594 C 181.960938 156.164062 181.148438 154.265625 180.632812 151.875 C 179.859375 148.300781 179.75 143.617188 180.167969 139.945312 C 184.691406 140.347656 191.464844 137.519531 194.648438 135.984375 C 194.609375 139.320312 195.894531 143.214844 196.542969 144.746094 C 197.570312 143.851562 200.183594 141.902344 201.589844 144.566406 C 203.074219 147.390625 200.628906 151.050781 197.582031 151.65625 C 197.4375 152.339844 197.644531 158.132812 198.824219 163.117188 C 190.082031 170.707031 184.703125 166.457031 183.859375 163.808594 C 183.921875 163.40625 183.878906 162.582031 183.878906 162.582031 C 184.121094 160.808594 185.113281 159.742188 185.167969 157.796875 Z M 185.167969 157.796875 " fill-opacity="1" fill-rule="nonzero"/><path fill="#8c1a00" d="M 183.109375 156.933594 C 183.742188 157.359375 184.433594 157.644531 185.167969 157.796875 C 188.65625 158.523438 193.160156 156.238281 197.582031 151.65625 C 200.628906 151.050781 203.074219 147.390625 201.589844 144.566406 C 200.183594 141.902344 197.566406 143.851562 196.542969 144.746094 C 195.894531 143.214844 194.605469 139.320312 194.648438 135.984375 C 191.464844 137.519531 184.691406 140.347656 180.164062 139.945312 C 179.839844 139.917969 179.53125 139.871094 179.230469 139.808594 C 178.867188 136.558594 177.867188 130.753906 182.40625 128.78125 C 186.839844 126.855469 197.964844 126.242188 203.335938 132.402344 C 207.042969 136.65625 202.441406 146.152344 207.113281 157.449219 C 205.847656 159.066406 202.78125 161.695312 198.386719 162.996094 C 196.25 155.4375 197.15625 152.75 197.582031 151.65625 C 193.160156 156.238281 188.65625 158.523438 185.167969 157.796875 C 185.132812 158.347656 184.847656 160.921875 184.703125 162.199219 L 181.378906 162.539062 C 180.820312 159.140625 180.636719 155.285156 180.628906 151.875 C 181.148438 154.265625 181.960938 156.164062 183.109375 156.933594 Z M 183.109375 156.933594 " fill-opacity="1" fill-rule="nonzero"/><path fill="#3a3683" d="M 136.058594 126.015625 L 145.101562 136.839844 L 162.464844 139.003906 L 157.148438 167.355469 L 142.679688 171.324219 L 136.058594 161.582031 Z M 136.058594 126.015625 " fill-opacity="1" fill-rule="nonzero"/><path fill="#6c64f5" d="M 145.097656 136.839844 L 137.078125 127.242188 L 140.5625 127.242188 C 142.203125 129.285156 145.5625 133.863281 145.890625 135.828125 L 157.367188 138.367188 Z M 145.097656 136.839844 " fill-opacity="1" fill-rule="nonzero"/><path fill="#f7aa8c" d="M 147.445312 150.53125 C 148.300781 152.8125 142.875 159.644531 146.015625 162.777344 C 146.964844 163.722656 147.589844 164.917969 147.992188 166.128906 L 141.300781 168.125 C 140.980469 166.945312 140.40625 165.835938 139.449219 165.058594 C 136.308594 162.492188 136.59375 158.222656 135.738281 154.804688 C 134.882812 151.386719 131.457031 148.824219 132.597656 148.253906 C 133.511719 147.796875 135.835938 150.152344 136.878906 151.386719 C 136.878906 149.679688 136.878906 141.988281 138.59375 142.84375 C 139.953125 143.523438 139.738281 148.558594 139.457031 151.046875 C 139.761719 148.464844 141.457031 143.421875 142.589844 144.550781 C 143.449219 145.40625 142.589844 148.253906 142.304688 150.246094 C 142.078125 151.84375 142.398438 156.226562 142.589844 158.222656 C 143.449219 155.089844 146.875 149.023438 147.445312 150.53125 Z M 147.445312 150.53125 " fill-opacity="1" fill-rule="nonzero"/><path fill="#6c64f5" d="M 244.328125 211.851562 C 246.378906 200.40625 239 181.601562 230.800781 171.789062 C 226.507812 166.648438 214.707031 163.449219 204.503906 161.777344 C 199.585938 169.222656 188.027344 179.570312 181.144531 161.394531 C 168.847656 164.851562 160.648438 169.351562 157.84375 189.777344 C 156.59375 184.875 154.746094 168.203125 154.089844 166.898438 C 149.171875 164.851562 140.566406 167.726562 135.238281 170.984375 C 140.976562 217.195312 151.273438 219.007812 157.84375 215.136719 C 162.699219 212.273438 167.664062 207.960938 171.179688 201.824219 C 171.066406 211.746094 170.074219 220.03125 167.207031 222.480469 C 164.339844 224.933594 167.207031 227.183594 166.386719 227.796875 C 161.796875 231.230469 161.878906 233.109375 165.15625 233.519531 L 165.195312 233.535156 C 172.867188 236.539062 190.203125 243.335938 210.308594 236.789062 C 212.679688 236.019531 223.421875 239.265625 225.882812 238.425781 C 229.097656 237.324219 226.703125 235.5625 226.703125 233.929688 L 227 231.375 C 231.148438 228.1875 235.773438 224.496094 239.222656 220.675781 C 241.910156 218.800781 243.683594 216.058594 244.328125 211.851562 Z M 244.328125 211.851562 " fill-opacity="1" fill-rule="nonzero"/><path fill="#3a3683" d="M 171.589844 201.832031 C 171.667969 194.847656 170.941406 186.914062 169.242188 179.464844 L 168.449219 179.648438 C 170.128906 187.027344 170.851562 194.894531 170.773438 201.820312 Z M 159.40625 196.261719 L 158.246094 189.707031 L 157.441406 189.847656 L 158.601562 196.402344 Z M 159.40625 196.261719 " fill-opacity="1" fill-rule="evenodd"/><path fill="#3a3683" d="M 219.601562 182.589844 L 218.800781 182.734375 L 222.40625 202.570312 C 218.085938 203.691406 215.140625 204.953125 212.796875 206.054688 C 212.304688 206.289062 211.84375 206.511719 211.402344 206.726562 C 209.675781 207.5625 208.289062 208.234375 206.769531 208.613281 L 206.964844 209.40625 C 208.574219 209.003906 210.058594 208.285156 211.792969 207.445312 C 212.226562 207.234375 212.675781 207.019531 213.148438 206.796875 C 215.519531 205.675781 218.515625 204.398438 222.972656 203.269531 L 223.34375 203.175781 Z M 220.480469 225.007812 C 217.023438 225.433594 213.28125 225.894531 209.335938 226.582031 L 209.476562 227.386719 C 213.398438 226.703125 217.117188 226.246094 220.578125 225.820312 C 221.226562 225.738281 221.867188 225.660156 222.5 225.582031 C 226.484375 225.082031 230.09375 224.578125 233.191406 223.738281 C 236.289062 222.898438 238.910156 221.71875 240.890625 219.847656 C 242.882812 217.96875 244.195312 215.421875 244.730469 211.914062 L 243.921875 211.789062 C 243.410156 215.148438 242.167969 217.515625 240.332031 219.253906 C 238.488281 220.996094 236.011719 222.128906 232.980469 222.949219 C 229.945312 223.769531 226.386719 224.269531 222.398438 224.769531 C 221.769531 224.847656 221.132812 224.929688 220.480469 225.007812 Z M 220.480469 225.007812 " fill-opacity="1" fill-rule="evenodd"/><path fill="#3a3683" d="M 181.144531 161.394531 C 188.03125 179.570312 199.589844 169.222656 204.507812 161.777344 C 202.84375 161.503906 200.050781 160.972656 198.460938 160.765625 C 190.675781 172.222656 186.0625 165.25 184.613281 160.78125 C 183.691406 160.90625 181.902344 161.269531 181.144531 161.394531 Z M 181.144531 161.394531 " fill-opacity="1" fill-rule="nonzero"/><path fill="#8c1a00" d="M 191.761719 265.5625 C 167.910156 274.003906 162.953125 274.914062 155.027344 274.214844 C 155.582031 273.382812 156.929688 271.128906 157.472656 270.363281 C 158.800781 268.488281 160.082031 266.867188 161.335938 265.449219 C 162.472656 263.574219 163.449219 261.691406 164.039062 260.015625 C 165.460938 258.308594 169.988281 254.304688 177.746094 250.300781 C 177.863281 251.652344 177.378906 253.375 177.4375 254.03125 C 177.128906 259.578125 185.398438 263.78125 191.761719 265.5625 Z M 191.761719 265.5625 " fill-opacity="1" fill-rule="nonzero"/><path fill="#f7aa8c" d="M 177.746094 250.300781 C 169.988281 254.304688 165.460938 258.308594 164.039062 260.015625 C 166.421875 256.109375 167.699219 249.519531 174.917969 245.667969 L 181.386719 246.941406 C 179.824219 248.09375 178.628906 249.214844 177.746094 250.300781 Z M 177.746094 250.300781 " fill-opacity="1" fill-rule="nonzero"/><path fill="#3a3683" d="M 196.039062 215.085938 L 196.039062 202.898438 C 196.039062 204.042969 192.542969 204.96875 188.234375 204.96875 C 183.921875 204.96875 180.429688 204.042969 180.429688 202.898438 L 180.429688 215.085938 C 180.429688 219.40625 183.921875 222.90625 188.234375 222.90625 C 192.542969 222.90625 196.039062 219.40625 196.039062 215.085938 Z M 196.039062 215.085938 " fill-opacity="1" fill-rule="nonzero"/><path fill="#3a3683" d="M 188.234375 204.96875 C 192.542969 204.96875 196.039062 204.042969 196.039062 202.898438 C 196.039062 201.753906 192.542969 200.828125 188.234375 200.828125 C 183.921875 200.828125 180.429688 201.753906 180.429688 202.898438 C 180.429688 204.042969 183.921875 204.96875 188.234375 204.96875 Z M 188.234375 204.96875 " fill-opacity="1" fill-rule="nonzero"/><path fill="#6c64f5" d="M 188.234375 204.046875 C 191.785156 204.046875 194.664062 203.535156 194.664062 202.898438 C 194.664062 202.261719 191.785156 201.75 188.234375 201.75 C 184.683594 201.75 181.808594 202.261719 181.808594 202.898438 C 181.808594 203.535156 184.683594 204.046875 188.234375 204.046875 Z M 188.234375 204.046875 " fill-opacity="1" fill-rule="nonzero"/><path fill="#f7aa8c" d="M 196.363281 204.414062 C 197.847656 205.90625 200.824219 205.605469 202.910156 209.78125 C 203.394531 210.757812 203.539062 211.996094 203.460938 213.328125 L 209.734375 211.554688 C 210.570312 212.765625 212.039062 216.449219 211.230469 221.5 L 200.824219 222.300781 C 197.847656 224.386719 196.894531 219.914062 196.363281 219.617188 C 195.828125 219.320312 189.515625 218.125 189.816406 217.230469 C 190.113281 216.339844 196.363281 216.636719 196.894531 216.636719 C 196.699219 216.308594 196.277344 215.972656 195.46875 215.742188 C 193.386719 215.144531 189.515625 214.25 189.816406 213.058594 C 190.050781 212.105469 194.277344 213.058594 196.363281 213.65625 L 194.875 211.867188 C 192.789062 210.972656 189.515625 209.78125 189.816406 208.886719 C 190.113281 207.992188 193.386719 208.585938 194.875 208.886719 C 196.0625 209.125 197.550781 210.773438 198.148438 211.570312 C 198.445312 210.972656 198.742188 209.183594 196.660156 207.695312 C 194.574219 206.203125 194.875 202.925781 196.363281 204.414062 Z M 196.363281 204.414062 " fill-opacity="1" fill-rule="nonzero"/><path fill="#3a3683" d="M 193.140625 207.253906 L 191.761719 207.089844 L 192.039062 204.722656 L 193.417969 204.882812 C 196.117188 205.203125 198.148438 207.492188 198.148438 210.210938 L 198.148438 216.394531 C 198.148438 219.503906 195.308594 221.839844 192.261719 221.230469 L 192.726562 218.890625 C 194.300781 219.207031 195.769531 218 195.769531 216.394531 L 195.769531 210.210938 C 195.769531 208.699219 194.636719 207.429688 193.140625 207.253906 Z M 193.140625 207.253906 " fill-opacity="1" fill-rule="evenodd"/><path fill="#8c1a00" d="M 192.050781 266.214844 C 168.300781 274.65625 163.363281 275.566406 155.476562 274.867188 C 156.027344 274.035156 157.367188 271.78125 157.910156 271.015625 C 159.230469 269.140625 160.507812 267.519531 161.757812 266.101562 C 162.886719 264.226562 163.859375 262.34375 164.449219 260.667969 C 165.863281 258.960938 170.371094 254.957031 178.09375 250.953125 C 178.214844 252.304688 177.730469 254.027344 177.789062 254.683594 C 177.480469 260.230469 185.714844 264.433594 192.050781 266.214844 Z M 192.050781 266.214844 " fill-opacity="1" fill-rule="nonzero"/><path fill="#3a3683" d="M 260.613281 234.464844 C 275.652344 261.246094 242.09375 279.558594 189.792969 266.9375 C 186.976562 269.25 184.890625 266.894531 184.195312 265.425781 C 180.550781 269.023438 176.070312 261.609375 177.257812 255.320312 C 177.339844 253.882812 176.777344 252.566406 178.089844 250.945312 C 170.367188 254.949219 165.859375 258.957031 164.445312 260.664062 C 163.855469 262.335938 162.882812 264.222656 161.753906 266.097656 C 160.503906 267.515625 159.226562 269.136719 157.902344 271.011719 C 154.332031 270.257812 153.453125 268.84375 153.65625 267.527344 C 111.316406 258.308594 105.289062 241.5 114.566406 229.425781 C 122.957031 218.507812 163.449219 227.984375 198.007812 238.375 C 223.636719 226.210938 251.925781 219 260.613281 234.464844 Z M 260.613281 234.464844 " fill-opacity="1" fill-rule="nonzero"/><path fill="#8a86d3" d="M 123.589844 236.121094 C 123.605469 236.011719 123.707031 235.929688 123.816406 235.945312 C 136.730469 237.527344 147.695312 239.691406 155.433594 241.464844 C 159.300781 242.347656 162.363281 243.136719 164.460938 243.703125 C 165.507812 243.984375 166.3125 244.210938 166.859375 244.367188 C 167.128906 244.445312 167.335938 244.507812 167.476562 244.550781 C 167.546875 244.570312 167.597656 244.585938 167.632812 244.597656 L 167.644531 244.601562 C 168.703125 244.488281 170.332031 244.523438 171.839844 244.757812 C 172.605469 244.875 173.347656 245.046875 173.972656 245.277344 C 174.59375 245.503906 175.121094 245.800781 175.4375 246.191406 C 175.507812 246.277344 175.496094 246.40625 175.410156 246.476562 C 175.320312 246.550781 175.191406 246.535156 175.121094 246.449219 C 174.875 246.144531 174.429688 245.878906 173.832031 245.660156 C 173.238281 245.441406 172.527344 245.277344 171.777344 245.160156 C 170.277344 244.929688 168.664062 244.898438 167.648438 245.011719 L 167.605469 245.015625 L 167.566406 245.003906 L 167.625 244.808594 C 167.566406 245.003906 167.566406 245.003906 167.566406 245.003906 L 167.554688 245 L 167.515625 244.988281 C 167.480469 244.976562 167.429688 244.960938 167.359375 244.941406 C 167.222656 244.902344 167.015625 244.839844 166.746094 244.761719 C 166.203125 244.605469 165.398438 244.378906 164.355469 244.097656 C 162.261719 243.53125 159.207031 242.746094 155.34375 241.863281 C 147.613281 240.09375 136.664062 237.929688 123.769531 236.351562 C 123.65625 236.335938 123.578125 236.234375 123.589844 236.121094 Z M 229.117188 230.652344 C 229.144531 230.761719 229.082031 230.871094 228.972656 230.902344 C 223.542969 232.363281 195.265625 242.761719 181.792969 247.785156 C 181.6875 247.824219 181.570312 247.769531 181.53125 247.664062 C 181.492188 247.558594 181.546875 247.441406 181.652344 247.402344 C 195.109375 242.382812 223.410156 231.972656 228.867188 230.507812 C 228.976562 230.476562 229.089844 230.542969 229.117188 230.652344 Z M 229.117188 230.652344 " fill-opacity="1" fill-rule="evenodd"/><path fill="#8a86d3" d="M 127.175781 249.515625 C 134.582031 254.429688 143.566406 258.425781 151.714844 261.34375 C 153.40625 255.210938 157.210938 247.996094 164.464844 243.914062 C 165.148438 244.097656 165.726562 244.261719 166.195312 244.390625 C 158.542969 248.144531 154.589844 255.46875 152.871094 261.753906 C 156.335938 262.964844 159.621094 263.972656 162.53125 264.769531 C 162.328125 265.132812 162.117188 265.5 161.898438 265.867188 C 159.066406 265.085938 155.898438 264.109375 152.570312 262.945312 C 152.214844 264.457031 151.996094 265.878906 151.882812 267.132812 C 151.480469 267.042969 151.078125 266.949219 150.679688 266.855469 C 150.804688 265.542969 151.042969 264.078125 151.40625 262.535156 C 143.175781 259.59375 134.050781 255.546875 126.5 250.535156 C 119.722656 246.039062 114.132812 240.703125 111.671875 234.621094 C 111.871094 234.058594 112.105469 233.503906 112.367188 232.957031 C 114.390625 239.175781 119.992188 244.746094 127.175781 249.515625 Z M 127.175781 249.515625 " fill-opacity="1" fill-rule="nonzero"/><path fill="#8a86d3" d="M 244.007812 260.234375 C 230.226562 265.046875 210.445312 266.09375 189.816406 264.445312 C 190.597656 265.625 191.320312 266.632812 191.9375 267.445312 L 191.886719 267.433594 C 191.292969 267.300781 190.699219 267.160156 190.101562 267.019531 C 189.535156 266.226562 188.917969 265.324219 188.265625 264.320312 C 185.007812 264.035156 181.726562 263.691406 178.449219 263.28125 C 178.238281 262.871094 178.042969 262.433594 177.875 261.972656 C 181.066406 262.378906 184.261719 262.730469 187.441406 263.015625 C 185.121094 259.273438 182.488281 254.359375 180.300781 248.726562 C 180.613281 248.457031 180.945312 248.183594 181.296875 247.910156 C 183.636719 254.019531 186.519531 259.292969 188.972656 263.148438 C 209.878906 264.898438 229.851562 263.878906 243.605469 259.078125 C 250.515625 256.664062 255.785156 253.324219 258.84375 248.964844 C 261.25 245.542969 262.324219 241.445312 261.699219 236.566406 C 262.253906 237.734375 262.714844 238.878906 263.082031 240.007812 C 262.945312 243.644531 261.820312 246.863281 259.847656 249.671875 C 256.582031 254.320312 251.039062 257.78125 244.007812 260.234375 Z M 244.007812 260.234375 " fill-opacity="1" fill-rule="nonzero"/><path fill="#f7aa8c" d="M 178.097656 250.953125 C 170.371094 254.957031 165.863281 258.960938 164.449219 260.667969 C 166.824219 256.761719 168.09375 250.175781 175.277344 246.320312 L 181.722656 247.59375 C 180.167969 248.746094 178.976562 249.867188 178.097656 250.953125 Z M 178.097656 250.953125 " fill-opacity="1" fill-rule="nonzero"/></svg>